<svg width="64" height="64" viewBox="0 0 64 64" fill="none" xmlns="http://www.w3.org/2000/svg">
    <path d="M32.1719 64C27.9995 63.8886 23.9975 63.0807 20.3361 61.3814C16.3057 59.515 12.8145 56.8965 10.0614 53.2193C7.59204 49.9322 5.9742 46.4222 4.86726 42.5223C3.84546 38.873 3.73193 35.2237 4.49828 31.6859C5.49169 27.3124 7.10953 23.1338 10.2884 19.6238C12.8145 16.8381 15.5961 14.4703 19.0021 12.9103C20.7902 12.0746 22.6635 11.4617 24.48 10.6539C24.8206 10.5146 25.1896 9.95747 25.1612 9.59533C25.1328 7.78463 25.3599 6.08535 26.3533 4.44179C27.9144 1.87895 30.2134 0.513958 33.1085 0.12396C35.294 -0.15461 37.5079 -0.0431818 39.438 1.29395C41.6235 2.79823 42.8439 4.85965 42.8439 7.53392C42.8439 8.09105 42.8156 8.64819 42.7304 9.20533C42.475 11.2946 42.5317 11.1553 44.5469 12.1025C47.4136 13.4396 50.0533 15.2224 52.0969 17.646C53.7715 19.596 55.3325 21.6574 56.7517 23.7745C57.5181 24.8888 57.9722 26.2538 58.3979 27.5631C59.7603 31.7416 60.4415 36.0595 59.6752 40.4051C58.994 44.138 57.9438 47.8151 55.7583 51.0187C53.3457 54.5843 50.3655 57.7043 46.6189 59.9607C45.4552 60.6572 44.1496 61.2422 42.8723 61.66C40.5449 62.44 38.1607 63.1643 35.7765 63.7493C34.6128 64.0279 33.364 63.9443 32.1719 64ZM7.56366 36.5052C7.70558 36.533 7.84749 36.5609 8.01779 36.5887C7.76234 40.4609 8.92605 44.0544 10.7142 47.3972C11.7076 49.2637 13.0132 51.0465 14.5175 52.5508C16.3057 54.3336 18.3209 55.8936 20.4496 57.2586C22.919 58.8465 25.814 59.6264 28.7091 60.0164C34.4709 60.7964 39.8637 59.7936 44.8308 56.6179C47.3853 55.0022 49.6559 53.0522 51.4724 50.7679C53.6296 48.038 55.0203 44.7787 55.7299 41.3801C56.6949 36.7002 56.184 32.0759 54.4527 27.5909C53.9985 26.3931 53.4593 25.1952 52.7213 24.1645C51.0467 21.7967 49.1734 19.6238 46.7892 17.841C44.6889 16.281 42.5601 14.916 40.0056 14.3032C38.3594 13.9132 36.6848 13.746 35.0102 13.4674C32.995 13.1332 31.6042 11.8796 30.9514 10.1246C30.3553 8.56462 30.7527 7.06035 32.3706 6.0575C33.2504 5.50036 35.2373 5.16607 36.1171 5.69535C37.0822 6.30821 37.5647 7.11606 37.4228 8.34177C37.2525 9.53962 36.401 9.37247 35.6346 9.40033C34.6696 9.42819 35.067 8.81534 35.067 8.28605C35.0953 7.84034 34.8967 7.31106 34.6412 6.94892C34.4993 6.78178 33.8749 6.80963 33.591 6.94892C32.3989 7.56177 32.1151 9.37247 32.995 10.3753C34.2155 11.7403 35.9184 12.2139 37.3944 11.5453C38.9554 10.8489 40.0908 9.03819 39.7218 7.39463C39.3528 5.6675 38.5013 4.41393 36.5996 3.57822C33.8181 2.32466 30.6392 3.99608 29.5039 5.75107C28.1982 7.64534 28.4253 9.81819 29.2768 11.9075C29.5039 12.4367 29.8161 12.9382 30.0999 13.4396C29.4755 13.6067 28.8227 13.7739 28.1982 13.941C28.1415 13.941 28.1131 13.941 28.0563 13.9689C23.1744 14.4146 19.0305 16.281 15.3974 19.5403C12.6442 22.0474 10.6858 25.0002 9.49372 28.3709C8.55707 30.9616 8.18809 33.7752 7.56366 36.5052Z" fill="#BEB400"/>
    <path d="M39.4377 37.8424C37.3657 37.8424 35.2654 35.781 35.1802 33.6638C35.1235 31.881 37.7063 29.3739 39.4661 29.4853C41.7651 29.6246 43.6668 31.6303 43.6952 33.8031C43.7236 35.7531 41.4529 37.9817 39.4377 37.8424Z" fill="#BEB400"/>
    <path d="M28.8507 33.7474C29.0778 35.6138 26.4665 38.0095 24.5081 37.8702C22.5496 37.7031 20.3074 35.6138 20.3074 33.6917C20.3074 31.8252 22.8335 29.4017 24.6784 29.4853C26.7787 29.5967 28.8791 31.7695 28.8507 33.7474Z" fill="#BEB400"/>
    <path d="M31.9729 48.54C30.5254 48.54 29.0495 48.5122 27.6019 48.54C26.495 48.5679 26.2679 47.8713 26.2395 47.0076C26.2111 46.116 26.722 45.7817 27.5735 45.7817C30.4402 45.7817 33.3353 45.7538 36.202 45.7817C37.1387 45.7817 38.1605 46.0882 38.0753 47.1469C38.0186 48.15 37.1671 48.5958 36.0601 48.54C34.6977 48.4843 33.3353 48.54 31.9729 48.54Z" fill="#BEB400"/>
    <path d="M15.0566 27.7587C14.0348 27.6472 13.382 27.285 13.4387 26.1148C13.4955 24.9446 14.3754 24.6102 15.1417 24.7774C15.7945 24.9167 16.6744 25.6412 16.7596 26.2263C16.9015 27.2015 16.0784 27.7308 15.0566 27.7587Z" fill="#BEB400"/>
    <path d="M40.7717 21.5467C39.4661 21.3795 38.643 21.2123 38.6714 20.07C38.6997 19.0948 39.1539 18.5097 40.1757 18.4539C41.0272 18.3982 42.2477 19.3734 41.9922 20.0978C41.7935 20.6829 41.1123 21.1566 40.7717 21.5467Z" fill="#BEB400"/>
    <path d="M21.386 20.7942C21.386 19.5404 22.2091 19.1504 23.089 19.3454C23.7134 19.4847 24.6784 20.1534 24.6784 20.5992C24.6784 21.3515 24.1391 22.2709 23.089 22.2709C22.0388 22.2709 21.4428 21.6858 21.386 20.7942Z" fill="#BEB400"/>
    <path d="M21.1021 50.6848C20.4493 51.1584 19.8249 51.9943 19.1721 51.9943C18.6044 51.9943 17.6961 51.1306 17.5542 50.5176C17.3271 49.626 18.1503 48.7901 19.0869 48.8737C19.7681 48.9294 20.4209 49.626 21.0737 50.0439C21.1021 50.239 21.1021 50.4619 21.1021 50.6848Z" fill="#BEB400"/>
    <path d="M32.569 22.9111C32.4555 24.2485 32.2 25.0286 31.0647 24.9729C30.128 24.945 29.5036 24.4714 29.4185 23.4962C29.3617 22.8275 30.5538 21.4901 31.1498 21.713C31.7743 21.9638 32.2284 22.6325 32.569 22.9111Z" fill="#BEB400"/>
    <path d="M47.5553 29.5416C47.1296 29.0122 46.4484 28.5107 46.3632 27.9256C46.2497 27.1454 46.5335 26.2817 47.7256 26.2538C48.9177 26.226 49.3435 26.839 49.4002 27.842C49.457 28.8729 48.7474 29.2073 47.5553 29.5416Z" fill="#BEB400"/>
    <path d="M10.8274 34.8063C11.6505 34.0819 12.1046 33.3296 12.6723 33.2181C13.6941 33.051 14.4321 33.7197 14.3753 34.8063C14.3469 35.7815 13.6941 36.5059 12.7291 36.3387C12.133 36.283 11.6789 35.5307 10.8274 34.8063Z" fill="#BEB400"/>
    <path d="M51.5006 40.9071C49.8544 40.9071 49.4002 40.322 49.4286 39.2632C49.457 38.1209 50.2517 37.9537 51.16 37.9258C52.2386 37.8701 52.6359 38.7617 52.5508 39.4304C52.4656 40.0434 51.7277 40.5727 51.5006 40.9071Z" fill="#BEB400"/>
    <path d="M31.2633 55.3924C30.724 55.8103 30.2131 56.4512 29.5887 56.5626C28.7088 56.7298 27.9709 56.3397 27.9709 55.1974C27.9425 54.1107 28.5101 53.7207 29.4752 53.6649C30.5253 53.6092 30.9227 54.1664 31.2633 55.3924Z" fill="#BEB400"/>
    <path d="M45.4549 44.9182C45.4833 46.0326 44.6885 46.2277 43.7803 46.3113C42.8436 46.367 42.3895 45.9491 42.3611 45.0296C42.3327 44.0544 42.6449 43.3857 43.7519 43.3857C44.8021 43.33 45.4833 43.7479 45.4549 44.9182Z" fill="#BEB400"/>
    <path d="M18.6612 44.1944C17.3556 43.9436 16.7879 43.5257 16.8447 42.5226C16.9014 41.631 17.242 40.8509 18.349 40.9066C19.4559 40.9345 20.0236 41.6868 19.8817 42.6341C19.7965 43.1913 19.087 43.665 18.6612 44.1944Z" fill="#BEB400"/>
    <path d="M41.3961 55.0027C40.204 55.0863 39.9485 54.4176 39.8634 53.4703C39.7782 52.3558 40.4594 52.1608 41.3393 52.1329C42.276 52.105 42.9288 52.523 42.872 53.4981C42.872 54.3619 42.5314 55.1142 41.3961 55.0027Z" fill="#BEB400"/>
</svg>
