<svg width="64" height="64" viewBox="0 0 64 64" fill="none" xmlns="http://www.w3.org/2000/svg">
    <path d="M52.2712 17.1062H33.4238C32.8814 17.1062 32.4746 17.507 32.4746 18.0414V36.8791C32.4746 37.4135 32.8814 37.8143 33.4238 37.8143H52.2712C52.8136 37.8143 53.2204 37.4135 53.2204 36.8791V18.0414C53.2204 17.507 52.678 17.1062 52.2712 17.1062ZM43.5933 32.6039C43.5933 32.0695 43.1865 31.6687 42.6441 31.6687H34.3729V18.9766H51.3221V35.9439H34.3729V33.6727H42.6441C43.1865 33.5391 43.5933 33.1383 43.5933 32.6039Z" fill="#BEB400"/>
    <path d="M42.9152 40.4863C41.4237 40.4863 40.2034 41.6887 40.2034 43.1583C40.2034 44.6279 41.4237 45.8304 42.9152 45.8304C44.4068 45.8304 45.6271 44.6279 45.6271 43.1583C45.6271 41.6887 44.4068 40.4863 42.9152 40.4863ZM42.9152 43.8263C42.5085 43.8263 42.1017 43.4255 42.1017 43.0247C42.1017 42.6239 42.5085 42.2231 42.9152 42.2231C43.322 42.2231 43.7288 42.6239 43.7288 43.0247C43.7288 43.5591 43.322 43.8263 42.9152 43.8263Z" fill="#BEB400"/>
    <path d="M42.9152 28.5959H39.7966C39.2542 28.5959 38.8474 28.9968 38.8474 29.5312C38.8474 30.0656 39.2542 30.4664 39.7966 30.4664H42.9152C43.4576 30.4664 43.8644 30.0656 43.8644 29.5312C43.8644 29.1304 43.4576 28.5959 42.9152 28.5959Z" fill="#BEB400"/>
    <path d="M56.7458 37.1463V16.9726C56.7458 14.7014 54.9831 12.9646 52.678 12.9646H43.4576V5.48294V5.34934V5.21574C43.4576 2.27652 41.017 0.00531333 38.1695 0.00531333H16.339C13.3559 -0.128287 10.9153 2.27652 10.9153 5.08214V5.21574V5.34934V11.3614H7.79661C5.62712 11.495 4 13.0982 4 15.2358V35.4095C4 37.4135 5.62712 39.1503 7.79661 39.1503H29.0847V39.6847C29.0847 42.8911 30.5763 45.6967 33.5593 47.5671C36 49.1703 39.3898 50.1055 42.9153 50.1055C49.8305 50.1055 56.7458 46.4983 56.7458 39.6847V39.1503C57.5593 39.2839 58.1017 40.0855 58.1017 40.8871V55.0488C58.1017 56.1176 57.2881 56.9192 56.2034 56.9192H28.8136V55.316C28.8136 54.7816 28.4068 54.3808 27.8644 54.3808H22.5763C20.8136 52.644 17.5593 51.4415 14.1695 51.4415C8.61017 51.4415 4.27119 54.2472 4.27119 57.7208C4.27119 61.328 8.61017 64 14.1695 64C17.5593 64 20.8136 62.9312 22.5763 61.0608H27.8644C28.4068 61.0608 28.8136 60.66 28.8136 60.1256V58.656H56.2034C58.2373 58.656 60 57.0528 60 54.9152V40.8871C60 39.0167 58.5085 37.4135 56.7458 37.1463ZM5.89831 15.2358C5.89831 14.167 6.71186 13.3654 7.79661 13.3654H11.0508V26.4582C11.0508 26.5918 11.0508 26.5918 11.0508 26.7254C11.322 29.3974 13.6271 31.4015 16.339 31.4015H29.0847V37.2799H7.79661C6.71186 37.2799 5.89831 36.4783 5.89831 35.4095V15.2358ZM16.339 22.5838H29.0847V29.3974H16.339C14.4407 29.3974 12.9492 27.9278 12.9492 26.0574C12.8136 24.187 14.4407 22.5838 16.339 22.5838ZM12.8136 12.163V5.61654C12.8136 5.48294 12.8136 5.48294 12.8136 5.34934V5.21574V5.08214C12.8136 3.21173 14.3051 1.74212 16.2034 1.74212H20.5424V20.7134H16.339C15.1186 20.7134 13.8983 21.1142 12.9492 21.9158V12.6974C12.9492 12.5638 12.9492 12.5638 12.9492 12.4302C12.9492 12.2966 12.9492 12.2966 12.8136 12.163ZM42.7797 48.1015C37.0847 48.1015 30.9831 45.4295 30.9831 39.5511V16.9726C30.9831 15.7702 31.9322 14.835 33.1525 14.835H52.5424C53.7627 14.835 54.7119 15.7702 54.7119 16.9726V39.5511C54.8475 43.6927 51.0508 48.1015 42.7797 48.1015ZM41.5593 5.61654V13.0982H33.1525C30.8475 13.0982 29.0847 14.835 29.0847 17.1062V20.847H22.5763V1.74212H38.1695C40.0678 1.74212 41.5593 3.21173 41.5593 5.08214V5.21574V5.34934C41.5593 5.48294 41.5593 5.48294 41.5593 5.61654ZM26.9153 56.1176V59.1904H23.3898V56.1176H26.9153ZM14.1695 62.1296C9.83051 62.1296 6.16949 60.1256 6.16949 57.7208C6.16949 55.316 9.83051 53.312 14.1695 53.312C17.2881 53.312 20 54.3808 21.3559 55.8504V59.5912C20.1356 61.0608 17.2881 62.1296 14.1695 62.1296Z" fill="#BEB400"/>
</svg>
