<svg width="64" height="64" viewBox="0 0 64 64" fill="none" xmlns="http://www.w3.org/2000/svg">
    <path d="M5.43158 49.1053V20.6C5.43158 20.0526 5.01053 19.6316 4.46316 19.6316C3.91579 19.6316 3.49474 20.0526 3.49474 20.6V49.1053C1.51579 49.5263 0 51.2947 0 53.4421C0 55.9263 2.02105 57.9053 4.46316 57.9053C6.90526 57.9053 8.92632 55.8842 8.92632 53.4421C8.92632 51.2947 7.45263 49.5263 5.43158 49.1053ZM4.46316 55.9684C3.07368 55.9684 1.93684 54.8316 1.93684 53.4421C1.93684 52.0526 3.07368 50.9158 4.46316 50.9158C5.85263 50.9158 6.98947 52.0526 6.98947 53.4421C6.98947 54.8316 5.85263 55.9684 4.46316 55.9684Z" fill="#BEB400"/>
    <path d="M60.5053 49.1054V27.8422C60.5053 27.2948 60.0843 26.8738 59.5369 26.8738C58.9895 26.8738 58.5685 27.2948 58.5685 27.8422V49.1054C56.5474 49.5685 55.0737 51.3369 55.0737 53.4843C55.0737 55.9685 57.0948 57.9475 59.5369 57.9475C62.0211 57.9475 64 55.9264 64 53.4843C64 51.2948 62.4843 49.5264 60.5053 49.1054ZM59.5369 55.9685C58.1474 55.9685 57.0106 54.8317 57.0106 53.4422C57.0106 52.0527 58.1474 50.9159 59.5369 50.9159C60.9264 50.9159 62.0632 52.0527 62.0632 53.4422C62.0632 54.8317 60.9264 55.9685 59.5369 55.9685Z" fill="#BEB400"/>
    <path d="M8.96842 28.642L22.0632 36.8946C22.1053 36.8946 22.1053 36.9367 22.1474 36.9367C22.1895 36.9367 22.1895 36.9788 22.2316 36.9788C22.3579 37.0209 22.4421 37.063 22.5684 37.063H54.5263C55.0737 37.063 55.4947 36.642 55.4947 36.0946C55.4947 35.5472 55.0737 35.1262 54.5263 35.1262H22.8632L9.97895 26.9999C9.51579 26.7051 8.92632 26.8314 8.63158 27.2946C8.37895 27.7578 8.50527 28.3893 8.96842 28.642Z" fill="#BEB400"/>
    <path d="M14.8211 26.9999L21.179 30.9999C21.3474 31.0841 21.5158 31.1683 21.6842 31.1683C22.0211 31.1683 22.3158 30.9999 22.5263 30.7051C22.8211 30.242 22.6948 29.6525 22.2316 29.3578L15.8737 25.3578C15.4106 25.063 14.8211 25.1893 14.5263 25.6525C14.2316 26.1157 14.3579 26.7051 14.8211 26.9999Z" fill="#BEB400"/>
    <path d="M55.4947 46.4525V41.1051C55.4947 40.5578 55.0737 40.1367 54.5263 40.1367H9.47367C8.9263 40.1367 8.50525 40.5578 8.50525 41.1051V46.4525C8.50525 46.9999 8.9263 47.4209 9.47367 47.4209C10.021 47.4209 10.4421 46.9999 10.4421 46.4525V42.0736H53.5579V46.4525C53.5579 46.9999 53.9789 47.4209 54.5263 47.4209C55.0737 47.4209 55.4947 46.9578 55.4947 46.4525Z" fill="#BEB400"/>
    <path d="M51.5369 52.4736H12.4632C11.9158 52.4736 11.4948 52.8947 11.4948 53.4421C11.4948 53.9894 11.9158 54.4105 12.4632 54.4105H51.4947C52.0421 54.4105 52.4632 53.9894 52.4632 53.4421C52.5053 52.8947 52.0421 52.4736 51.5369 52.4736Z" fill="#BEB400"/>
    <path d="M24.7157 21.5684H28.8V25.6526C28.8 27.1263 29.9789 28.3053 31.4526 28.3053H33.9789C35.4526 28.3053 36.6315 27.1263 36.6315 25.6526V21.5684H40.7157C42.1894 21.5684 43.3684 20.3895 43.3684 18.9158V16.3895C43.3684 14.9158 42.1894 13.7368 40.7157 13.7368H36.6315V9.65263C36.6315 8.17895 35.4526 7 33.9789 7H31.4526C29.9789 7 28.8 8.17895 28.8 9.65263V13.7368H24.7157C23.2421 13.7368 22.0631 14.9158 22.0631 16.3895V18.9158C22.0631 20.3895 23.2421 21.5684 24.7157 21.5684ZM24 16.3895C24 16.0105 24.3368 15.6737 24.7157 15.6737H29.7684C30.3157 15.6737 30.7368 15.2526 30.7368 14.7053V9.65263C30.7368 9.27368 31.0736 8.93684 31.4526 8.93684H33.9789C34.3578 8.93684 34.6947 9.27368 34.6947 9.65263V14.7053C34.6947 15.2526 35.1157 15.6737 35.6631 15.6737H40.7157C41.0947 15.6737 41.4315 16.0105 41.4315 16.3895V18.9158C41.4315 19.2947 41.0947 19.6316 40.7157 19.6316H35.6631C35.1157 19.6316 34.6947 20.0526 34.6947 20.6V25.6526C34.6947 26.0316 34.3578 26.3684 33.9789 26.3684H31.4526C31.0736 26.3684 30.7368 26.0316 30.7368 25.6526V20.6C30.7368 20.0526 30.3157 19.6316 29.7684 19.6316H24.7157C24.3368 19.6316 24 19.2947 24 18.9158V16.3895Z" fill="#BEB400"/>
</svg>
