<svg xmlns="http://www.w3.org/2000/svg" width="18" height="18" viewBox="0 0 18 18">
    <path id="calendar-icon"
          d="M591.137,674.535v-1.453a1.366,1.366,0,1,1,2.726,0v1.453a1.366,1.366,0,1,1-2.726,0Zm-7.637,1.453a1.414,1.414,0,0,0,1.363-1.453v-1.453a1.366,1.366,0,1,0-2.726,0v1.453A1.414,1.414,0,0,0,583.5,675.988Zm13.5-2.1V689.63H579V673.889h2.689v.646a1.815,1.815,0,1,0,3.622,0v-.646h5.378v.646a1.815,1.815,0,1,0,3.622,0v-.646Zm-1.344,5.1H580.344v9.2h15.312Zm-1.121.723h-2.689v2.169h2.689Zm-3.4,0h-2.689v2.169h2.689Zm-3.361,0h-2.689v2.169h2.689Zm6.759,2.891h-2.689v2.209h2.689Zm-3.4,0h-2.689v2.209h2.689Zm-3.361,0h-2.689v2.209h2.689Zm-3.361,0h-2.726v2.209h2.726Zm10.12,2.931h-2.689V687.7h2.689Zm-3.4,0h-2.689V687.7h2.689Zm-3.361,0h-2.689V687.7h2.689Zm-3.361,0h-2.726V687.7h2.726Z"
          transform="translate(-579 -671.63)" fill="#beb400"/>
</svg>
