<svg xmlns="http://www.w3.org/2000/svg" width="37.381" height="40" viewBox="0 0 37.381 40"><defs><style>.a{fill:#beb400;}</style></defs><g transform="translate(-1284 -810.001)"><path class="a" d="M1311.767,846.091l-1.062-1.559c5.668-3.858,8.79-7.479,8.79-10.2V816.858a21.723,21.723,0,0,1-12.86-4.281,21.727,21.727,0,0,1-12.861,4.281v4.594h-1.886v-6.465h.943c8.657,0,13.095-4.284,13.139-4.327l.667-.659.665.661c.042.041,4.479,4.325,13.136,4.325h.943v19.348C1321.381,838.643,1316.153,843.106,1311.767,846.091Z"/><path class="a" d="M1296.858,835.278a3.166,3.166,0,0,1-.745-.089,3.049,3.049,0,1,1,3.7-3.7,3.05,3.05,0,0,1-2.958,3.791Zm0-4.206a1.146,1.146,0,0,0-.82.339,1.167,1.167,0,0,0-.3,1.123,1.152,1.152,0,0,0,.821.821,1.166,1.166,0,0,0,1.426-1.425h0a1.154,1.154,0,0,0-.821-.821A1.273,1.273,0,0,0,1296.858,831.072Z"/><path class="a" d="M1302.468,836.681a2.346,2.346,0,1,1,2.345-2.346A2.348,2.348,0,0,1,1302.468,836.681Zm0-2.805a.459.459,0,1,0,.459.459A.46.46,0,0,0,1302.468,833.876Z"/><path class="a" d="M1298.261,837.186a.655.655,0,1,1,0,1.31.817.817,0,0,1-.247-.04.588.588,0,0,1-.368-.368.678.678,0,0,1,.086-.632.657.657,0,0,1,.529-.27m0-1.887a2.551,2.551,0,0,0-2.417,3.35,2.48,2.48,0,0,0,1.608,1.608,2.707,2.707,0,0,0,.809.126,2.542,2.542,0,0,0,0-5.084Z"/><path class="a" d="M1306.887,822.875h0a2.582,2.582,0,0,0-2.547,2.187c-.047.159-.086.316-.125.473a2.311,2.311,0,0,1-.726,1.381,8.273,8.273,0,0,0-2.061-.912,4.88,4.88,0,0,1,.032-2.56c.311-.865.96-2.666-.409-3.948a3.1,3.1,0,0,0-3.89-.234c-1.241.9-1.473,2.451-.637,4.258a3.382,3.382,0,0,1,.1,2.479,8.561,8.561,0,0,0-2.383,1.081l1.031,1.58a6.653,6.653,0,0,1,2.278-.946l.512-.108.18-.491a5.543,5.543,0,0,0-.006-4.387c-.44-.952-.43-1.6.032-1.938a1.221,1.221,0,0,1,1.493.082c.346.325.327.813-.076,1.932a7.3,7.3,0,0,0,.086,4.291l.175.505.524.11a6.591,6.591,0,0,1,4.745,4.022l1.741-.727a8.887,8.887,0,0,0-1.967-2.916,4.161,4.161,0,0,0,1.057-2.1c.032-.131.065-.262.1-.4.245-.832.495-.832.738-.832h0a.423.423,0,0,1,.459.422c.007.2.015.429-.721.782l.816,1.7a2.723,2.723,0,0,0,1.79-2.549A2.3,2.3,0,0,0,1306.887,822.875Z"/><path class="a" d="M1310.232,832.877a3.064,3.064,0,0,0,2.931-.318,2.409,2.409,0,0,0,.414-3.243,2.447,2.447,0,0,0-1.753-1.072,2.505,2.505,0,0,0-2.017.752l1.313,1.354a.631.631,0,0,1,.5-.23.563.563,0,0,1,.384.24.543.543,0,0,1-.021.724c-.265.212-.579.168-1.229-.02a4.437,4.437,0,0,0-4.865,1.676l-.276.326.064.423a4.708,4.708,0,0,1,.052.846,6.748,6.748,0,0,1-1.79,4.586l-.338.368.114.487c.114.485.76,2.945,2.287,3.756.791.42,1.085.735,1.125,1.2a1.182,1.182,0,0,1-.327.888,1.145,1.145,0,0,1-.829.389h0c-.723,0-1.078-.67-1.168-1.3a5.029,5.029,0,0,0-2.945-3.929l-.352-.169-.369.129a6.412,6.412,0,0,1-2.176.357,6.808,6.808,0,0,1-5.865-3.386l-.129-.223-.225-.126c-1.379-.774-3.451-.1-4.523,1.011-.789.819-1.327.636-1.53.566a1.219,1.219,0,0,1-.786-1.31c.178-1.062,1.693-.879,1.756-.869a5.607,5.607,0,0,0,4.179-1.126l.377-.3-.025-.482c0-.091,0-.179,0-.281l0-.242a6.724,6.724,0,0,1,1.982-4.786l.682-.682-.7-.666a6.965,6.965,0,0,0-1.407-.97c-.915-.523-1.261-.771-1.262-1.307a.438.438,0,0,1,.428-.461c.2-.008.379-.011.525.455l1.8-.566a2.356,2.356,0,0,0-4.64.576c0,1.679,1.281,2.409,2.215,2.941l.294.17a8.517,8.517,0,0,0-1.059,1.77,5.332,5.332,0,0,1-2.423-1.238,6.572,6.572,0,0,0-1.2-.816,2.423,2.423,0,0,0-1.994-.05,2.311,2.311,0,0,0-1.316,1.374,2.457,2.457,0,0,0,.3,2.122,2.786,2.786,0,0,0,2.239,1.147l.1-1.884a1,1,0,0,1-.778-.322.554.554,0,0,1-.073-.46.445.445,0,0,1,.254-.237.529.529,0,0,1,.439.005,4.928,4.928,0,0,1,.856.6,7.223,7.223,0,0,0,3.028,1.562,8.755,8.755,0,0,0-.178,1.726v.083a3.777,3.777,0,0,1-2.4.48c-1.628-.213-3.53.457-3.861,2.426a3.1,3.1,0,0,0,2.039,3.41,3.2,3.2,0,0,0,3.5-1.044,2.613,2.613,0,0,1,2.058-.744,8.629,8.629,0,0,0,1.9,2.1,4.9,4.9,0,0,0-1.119,3.019c-.017.2-.134.56-.494.541a.446.446,0,0,1-.3-.166.5.5,0,0,1-.122-.363.651.651,0,0,1,.489-.5l-.592-1.791a2.475,2.475,0,0,0-1.772,2.088,2.385,2.385,0,0,0,.554,1.782,2.337,2.337,0,0,0,1.628.834c.05,0,.1.005.15.005a2.386,2.386,0,0,0,2.343-2.288,2.561,2.561,0,0,1,.9-2.106,8.665,8.665,0,0,0,2.325.75,4.787,4.787,0,0,1-.428,2.95c-.922,1.8-.391,2.906.216,3.512a2.347,2.347,0,0,0,3.316,0,2.691,2.691,0,0,0,.126-3.42l-1.586,1.022c.266.412.32.87.126,1.065a.459.459,0,0,1-.649,0c-.089-.089-.36-.359.131-1.319a6.7,6.7,0,0,0,.661-3.7,8.308,8.308,0,0,0,1.93-.3,3.071,3.071,0,0,1,1.577,2.331,3.128,3.128,0,0,0,3.034,2.911h0a3.036,3.036,0,0,0,2.218-1,3.074,3.074,0,0,0,.818-2.324,3.47,3.47,0,0,0-2.121-2.711,4.1,4.1,0,0,1-1.208-2.072,8.714,8.714,0,0,0,1.131-1.811,2.678,2.678,0,0,1,1.482,1.111c.453.627,1.3,1.794,2.588,1.794a2.349,2.349,0,0,0,2.346-2.346,2.2,2.2,0,0,0-2.357-2.242v1.886c.471,0,.471.2.471.356a.46.46,0,0,1-.46.459c-.328,0-.858-.734-1.058-1.011a4.589,4.589,0,0,0-2.415-1.792,8.634,8.634,0,0,0,.21-1.863c0-.247,0-.446-.02-.669A2.506,2.506,0,0,1,1310.232,832.877Z"/></g></svg>