<svg width="60" height="60" viewBox="0 0 60 60" fill="none" xmlns="http://www.w3.org/2000/svg">
    <path d="M53.5196 32.6488C53.3874 32.6488 53.2112 32.6488 53.079 32.6488H52.9908C52.8586 32.6488 52.7264 32.6488 52.5942 32.6488C52.5061 32.6488 52.418 32.6488 52.3298 32.6488C51.801 33.0014 51.2282 33.2217 50.6112 33.2217C50.6112 33.9268 50.6112 34.5878 50.6112 35.2928C51.3163 35.2928 52.0214 35.2928 52.6383 35.2928H53.5196V32.6488ZM53.74 31.3269C54.0925 31.3269 54.445 31.3269 54.8416 31.3269V36.5267C54.4891 36.5267 54.1806 36.5267 53.8281 36.5267C53.4756 36.5267 53.123 36.5267 52.7705 36.5267C52.7264 36.5267 52.6824 36.5267 52.6383 36.5267C51.6688 36.5267 50.7434 36.5267 49.774 36.4826C49.6418 36.4826 49.3333 36.1741 49.3333 35.9538C49.2893 34.4996 49.3333 33.0014 49.3333 31.3709C49.6859 31.5913 49.9943 31.7675 50.3028 31.8116C50.3468 31.8116 50.3468 31.8116 50.3909 31.8116C50.479 31.8116 50.5231 31.8116 50.6112 31.8116H50.6553C50.6994 31.8116 50.7434 31.8116 50.7875 31.8116C50.8316 31.8116 50.8316 31.8116 50.8756 31.8116C50.9638 31.8116 51.0519 31.7675 51.096 31.7675H51.14C51.3163 31.6794 51.5366 31.5913 51.7129 31.4591C51.8451 31.3269 52.0654 31.3269 52.3298 31.3269C52.5061 31.3269 52.6824 31.3269 52.8586 31.3269C52.9027 31.3269 52.9468 31.3269 52.9908 31.3269C53.0349 31.3269 53.0349 31.3269 53.079 31.3269C53.2552 31.3269 53.4756 31.3269 53.74 31.3269C53.6959 31.3269 53.6959 31.3269 53.74 31.3269ZM11.9651 23.7034C10.9075 25.2016 10.4668 27.2287 10.7312 28.9032C11.216 28.9913 11.6126 29.1235 11.9651 29.2998V23.7034ZM13.1989 20.8831C13.243 20.8831 13.243 20.8391 13.1989 20.8831L13.243 36.6148C13.243 36.6148 13.243 36.6148 13.1989 36.6148C12.7583 36.5707 12.3617 36.5267 11.921 36.4826C11.921 35.0725 11.921 33.6624 11.921 32.2522C11.921 30.6218 11.5244 30.2252 9.89397 30.1371C9.80583 30.1371 9.7177 30.093 9.62957 30.093C9.36517 29.2117 9.27704 28.2422 9.36517 27.2287C9.5855 24.805 10.8194 22.2933 12.8905 21.1035C13.0227 21.0153 13.1108 20.9272 13.1989 20.8831ZM47.7469 26.0389C47.4385 25.3779 47.13 24.761 46.7334 24.1881C46.3368 23.6152 45.8961 23.0424 45.3233 22.5136C46.2046 27.0524 47.0859 31.5913 47.9673 36.1301C48.0113 36.1301 48.0995 36.1301 48.1435 36.086C48.1435 35.381 48.1435 34.6759 48.1435 34.0149C48.1435 33.3098 48.1435 32.6048 48.1435 31.9438C48.1435 31.8116 48.1435 31.6794 48.1435 31.5472C48.1435 31.415 48.1876 31.2828 48.2317 31.1506C48.3639 30.754 48.6283 30.4455 49.113 30.2252C48.8927 29.5201 48.7164 28.8151 48.4961 28.11C48.2757 27.3609 48.0554 26.6558 47.7469 26.0389ZM9.3211 33.9268C8.96857 34.103 8.57198 34.1912 8.17538 34.1912C7.91098 34.1912 7.64658 34.1471 7.38219 34.103C7.02966 34.0149 6.72119 33.8827 6.45679 33.7064C6.45679 34.1912 6.45679 34.6759 6.45679 35.1606H9.3211V33.9268ZM10.2465 31.3709C10.3346 31.3709 10.4668 31.415 10.599 31.4591V36.4826H5.1348C5.1348 36.3504 5.1348 36.2623 5.1348 36.1301C5.1348 34.6759 5.1348 33.2658 5.1348 31.8116C5.1348 31.6353 5.3992 31.3709 5.5314 31.3709C5.6636 31.3709 5.83986 31.3269 5.97206 31.3269C6.1924 31.3269 6.41273 31.415 6.50086 31.7235C6.67713 32.2963 7.02966 32.6929 7.60252 32.8251C7.64658 32.8251 7.69065 32.8251 7.77878 32.8251C7.86692 32.8251 7.95505 32.8692 7.99911 32.8692C8.04318 32.8692 8.08725 32.8692 8.13131 32.8692C8.17538 32.8692 8.17538 32.8692 8.21945 32.8692C8.26351 32.8692 8.30758 32.8692 8.30758 32.8692C8.83638 32.8251 9.27704 32.5166 9.54144 31.8997C9.62957 31.6794 9.76177 31.5031 9.93803 31.415C9.9821 31.415 10.0262 31.3709 10.0702 31.3709C10.1143 31.3709 10.1143 31.3709 10.1584 31.3709C10.1584 31.3709 10.1584 31.3709 10.2024 31.3709C10.2024 31.3709 10.2024 31.3709 10.2465 31.3709C10.2465 31.3269 10.2465 31.3709 10.2465 31.3709ZM58.6313 50.8482C58.6313 50.8042 58.6313 50.8042 58.6313 50.8482V50.8482ZM58.6313 43.2688C58.6313 42.079 58.6313 40.8452 58.6313 39.6554C58.6313 38.8181 58.8076 37.6283 58.1025 37.0114C57.7941 36.747 57.3975 36.6589 57.0009 36.5707C56.8246 36.5267 56.2517 36.5707 56.1195 36.4385C55.9433 36.2623 56.1195 35.0284 56.1195 34.764C56.1195 34.1912 56.1195 33.6624 56.1195 33.0895C56.1195 32.2522 56.3399 30.9743 55.5907 30.3574C55.0179 29.9167 54.1366 30.0049 53.4756 30.0049C52.6383 30.0049 51.9332 30.2252 51.6688 29.2998C51.3604 28.3303 51.14 27.405 50.8316 26.4355C50.1265 24.4525 49.1571 22.4255 47.7469 20.8391C46.469 19.3849 44.8386 18.6358 42.9878 18.2832C42.459 18.1951 42.2827 18.151 41.798 18.2832C41.4454 18.4154 41.0489 18.4595 40.6963 18.5036C40.2557 18.5476 39.7709 18.5476 39.3303 18.5036C38.8455 18.4154 38.3608 18.1951 37.8761 18.2392C36.8626 18.3273 35.4965 18.812 34.6592 19.3408C33.9101 19.8255 33.3372 20.5306 32.8966 21.2797C31.7509 23.1305 30.9136 25.1135 29.9441 27.0524C29.1509 24.1 28.2696 21.1035 26.1985 18.768C25.4053 17.8426 24.4359 17.0053 23.202 16.6528C21.9241 16.3002 20.4258 16.5206 19.1038 16.5206C17.7818 16.5206 16.4598 16.4765 15.1379 16.5206C13.8159 16.5646 12.4498 17.2697 11.3482 17.9748C9.14484 19.3849 7.47032 21.5441 6.67712 24.0118C6.23646 25.3338 6.0602 26.744 6.10426 28.1541C6.10426 28.5066 6.14833 28.8591 6.14833 29.2117C6.14833 29.2998 6.1924 29.5642 6.1924 29.6964C6.14833 29.8727 6.14833 29.9167 6.14833 29.9167C6.14833 29.9167 6.10426 29.9167 5.97206 29.9608C5.61953 30.093 5.1348 30.0489 4.78227 30.1811C4.16534 30.4015 3.94501 30.8421 3.85688 31.4591C3.72468 32.6929 3.81281 34.0149 3.81281 35.2928C3.81281 35.6013 3.90095 36.2623 3.68062 36.3945C3.59248 36.5707 3.15182 36.5707 2.97555 36.5707C2.57896 36.6589 2.18236 36.747 1.91796 37.0555C1.12477 37.8046 1.43323 39.2588 1.43323 40.1842C1.4773 43.3129 1.43323 46.4416 1.43323 49.5703C1.43323 50.3194 1.3451 51.1126 1.43323 51.8177C1.52137 52.4346 1.82983 52.655 2.27049 53.0075C2.71116 53.3159 2.88742 54.5057 3.59248 54.2854C3.81281 54.1973 4.12128 53.8888 4.20941 53.6685C4.34161 53.3159 4.12128 53.3159 4.65007 53.3159H6.89746H11.4804C11.26 53.6244 11.921 54.2854 12.2735 54.3735C13.0227 54.5498 12.8464 53.7125 13.1108 53.3159C13.4633 52.7872 14.0362 53.6244 14.3006 53.8447C14.6972 54.1973 15.1819 54.3735 15.7107 54.4176C16.6361 54.4617 17.4734 54.021 17.9581 53.2278C18.531 52.2584 18.3988 51.0686 18.3988 50.011C18.3988 48.689 18.3988 47.367 18.3988 46.045C18.3988 45.7806 18.531 44.7671 18.3988 44.5467C18.3106 44.4146 17.87 44.2824 17.7378 44.1502C17.5615 43.9739 17.4293 43.7976 17.2971 43.6214C16.7242 42.6078 17.1208 41.1096 17.3412 40.0079C17.5615 38.8622 17.9581 37.8487 18.3106 36.747C18.4869 36.2182 18.3547 35.6454 18.3547 35.0725C18.3547 34.764 18.3106 34.3674 18.3547 34.0149C18.3988 33.6624 18.2666 33.7946 18.575 33.7064C19.3682 33.442 19.2801 34.3234 19.2801 34.8522C19.9852 33.7505 20.9105 32.737 22.1444 32.2082C20.7343 30.7099 20.558 28.3303 21.7037 26.6118C22.2325 25.8186 23.0257 25.2457 23.9071 24.9372C24.1274 24.8491 24.2155 24.8932 24.2596 24.7169C24.3477 24.5406 24.2155 23.9237 24.2155 23.7034C24.2155 23.439 24.1274 22.2051 24.3918 22.1611C24.7003 22.117 24.9646 23.1305 25.0968 23.3949C25.229 23.7034 25.3612 24.144 25.5375 24.4084C25.7578 24.6728 25.7138 24.6288 26.0663 24.6728C27.168 24.805 28.1815 25.422 28.9306 26.2592C30.4289 27.9778 30.3407 30.6218 28.7984 32.2522C28.9747 32.3404 29.3272 32.6048 29.5035 32.6048C29.6797 32.5607 30.0323 32.1641 30.1645 32.076C30.6492 31.7675 31.1339 31.5031 31.7068 31.3269C30.3407 29.8727 29.9441 27.6253 30.9136 25.8186C31.839 24.0559 33.822 23.0865 35.805 23.2187C37.4354 23.3509 38.8896 24.4966 39.6387 25.9067C40.5641 27.7134 40.2116 29.8727 38.8455 31.3269C42.0183 32.2082 43.3403 35.9538 43.8691 38.8622C44.0013 39.6995 44.0894 40.5808 44.1776 41.4621C44.2216 42.2112 44.3538 42.9604 44.0454 43.7095C43.5166 45.0755 41.7539 45.6043 40.5201 44.8993C40.5201 47.4111 40.4319 49.9228 40.5201 52.4346C40.5641 53.9769 42.1064 55.2108 43.5606 54.3295C44.3538 53.8447 44.5301 53.0956 44.5742 52.2143C44.5742 51.1126 44.5742 49.9669 44.5742 48.8652C44.5742 46.6179 44.5742 44.4146 44.5742 42.1672C44.5742 41.9468 44.5301 41.6384 44.5742 41.418C44.6623 41.0655 44.5742 41.1536 44.9708 41.1536C45.0589 41.1536 45.5877 41.1096 45.6758 41.1536C45.7199 41.1977 45.6758 41.6824 45.6758 41.7706C45.6758 42.7841 45.6758 43.7976 45.6758 44.8552C45.6758 47.1026 45.5877 49.3059 45.6758 51.5533C45.6758 51.994 45.764 52.4346 46.0284 52.7872C46.2927 53.0956 46.6893 53.2278 46.9097 53.5363C47.2181 53.9329 47.13 54.5939 47.791 54.5939C48.2757 54.5939 48.3198 54.2854 48.4961 53.9329C48.7164 53.5803 48.8927 53.5363 49.2452 53.4922C50.3468 53.4041 51.4926 53.4922 52.5942 53.4922C53.1671 53.4922 53.74 53.4922 54.3128 53.4922C54.5772 53.4922 55.4585 53.36 55.6348 53.4922C56.0755 53.8447 55.6789 54.6379 56.5602 54.5939C56.9127 54.5939 57.1331 54.3735 57.2653 54.0651C57.4415 53.5803 57.3534 53.4922 57.8381 53.2278C58.5432 52.7872 58.7195 52.1702 58.7195 51.377C58.7195 51.5974 58.7195 51.7296 58.7195 51.377V51.333V51.377C58.6754 48.5127 58.6313 45.9128 58.6313 43.2688ZM31.6627 27.7575C31.6627 29.6964 33.2932 31.3269 35.2321 31.3709C37.2592 31.3709 39.0659 29.4761 38.7574 27.449C38.5371 25.8626 36.9066 24.144 35.188 24.3644C33.3813 24.3644 31.6627 25.8626 31.6627 27.7575ZM40.6082 42.7841C40.8726 43.5332 41.7099 43.9739 42.459 43.4892C43.2962 42.9604 42.8996 41.5062 42.8556 40.713C42.6352 38.4215 42.1505 35.9979 40.7845 34.1471C40.2997 33.4861 39.6828 32.8692 38.9337 32.5607C38.493 32.3844 37.9201 32.2082 37.4795 32.2522C36.9948 32.2963 36.5541 32.5607 36.0253 32.6488C35.4524 32.737 34.8355 32.737 34.2626 32.6048C33.7779 32.5166 33.3813 32.2522 32.8966 32.2963C32.0153 32.3404 31.2221 32.737 30.5611 33.3098C32.7644 35.381 33.2932 38.3775 33.866 41.1977C34.0423 41.9468 34.1745 42.6519 33.822 43.357C33.6016 43.7976 33.2491 44.1502 32.8085 44.3705C32.5881 44.4586 32.3678 44.5467 32.1475 44.5908C31.6627 44.6789 31.7068 44.6789 31.7068 45.2077C31.7068 46.6179 31.7068 48.028 31.7068 49.4381C31.7068 50.1872 31.7068 50.9364 31.7068 51.6855C31.7068 52.1702 31.6627 52.699 31.839 53.1397C32.1034 53.9329 32.8085 54.4176 33.6457 54.2854C34.7914 54.1091 35.0118 53.0515 35.0118 52.0821C35.0118 50.672 35.0118 49.2178 35.0118 47.8077C35.0118 47.1026 35.0118 46.4416 35.0118 45.7365C35.0118 45.2077 34.9236 44.7671 35.3202 44.3705C35.6287 44.7671 35.5846 45.1196 35.5846 45.6043C35.5846 46.3535 35.5846 47.1026 35.5846 47.8517C35.5846 49.3059 35.5846 50.7601 35.5846 52.1702C35.5846 53.1838 36.0253 54.1973 37.127 54.2854C37.9642 54.3295 38.6252 53.8447 38.8455 53.0516C39.0218 52.5228 38.9337 51.9058 38.9337 51.333C38.9337 50.5838 38.9337 49.8347 38.9337 49.0856C38.9337 47.5873 38.9337 46.0891 38.9777 44.5467C38.9777 41.6824 39.0218 38.8181 39.0218 35.9098C39.0218 35.7776 39.3303 36.3945 39.3743 36.4826C39.5065 36.7911 39.6387 37.1436 39.7269 37.4521C39.9472 38.069 40.0794 38.6859 40.2116 39.3029C40.3879 40.4926 40.2557 41.7706 40.6082 42.7841ZM22.3647 29.9167C22.8495 31.6794 24.9206 32.781 26.6392 32.076C28.0934 31.4591 28.7984 30.1371 28.7103 28.6388C28.6222 27.1406 27.0358 25.7745 25.5375 25.8186C23.4223 25.8626 21.7919 27.8015 22.3647 29.9167ZM31.9271 43.3129C32.8085 43.0485 32.7203 42.2994 32.5441 41.5943C31.9271 38.6859 31.3983 35.0284 28.49 33.442C28.2256 33.3098 27.829 33.0454 27.5646 33.0454C27.3442 33.0454 26.9036 33.3539 26.6392 33.442C25.89 33.6624 25.185 33.6183 24.4359 33.442C23.9952 33.3539 23.5545 33.0454 23.1579 33.0895C22.8495 33.1336 22.541 33.3539 22.2766 33.4861C21.7037 33.8386 21.1749 34.3234 20.7783 34.8522C19.853 36.042 19.236 37.4521 18.8835 38.9063C18.6632 39.6995 18.531 40.5367 18.3988 41.374C18.3547 41.8146 18.1344 42.5197 18.4428 42.9604C18.9716 43.7536 20.0733 43.2688 20.2936 42.5197C20.514 41.7706 20.5139 40.9774 20.6902 40.1842C20.8665 39.3029 21.1749 38.4656 21.5275 37.6283C21.3071 39.9639 21.0427 42.2553 20.7783 44.5908C20.6902 45.384 20.6461 46.1331 21.5275 46.4857C21.8359 46.6179 22.1444 46.6179 22.3207 46.9704C22.4969 47.2789 22.4088 47.8077 22.4088 48.1602C22.4088 49.3059 22.4088 50.4516 22.4088 51.5974C22.4088 52.3024 22.2325 53.3159 22.6732 53.8888C23.0257 54.3295 23.8189 54.4176 24.3037 54.1973C25.0087 53.8888 24.9646 53.0075 24.9646 52.3465C24.9646 51.2448 24.9646 50.1872 24.9646 49.0856C24.9646 48.6009 24.6562 47.367 25.4053 47.2348C25.7578 47.1907 25.89 47.367 25.89 47.6755C25.9341 48.1161 25.89 48.6008 25.89 49.0415C25.89 50.1432 25.89 51.2448 25.89 52.3465C25.89 53.0515 25.89 53.8888 26.5951 54.2413C27.0798 54.5057 27.7849 54.4617 28.1374 54.021C28.6662 53.4481 28.49 52.4346 28.534 51.7296C28.534 50.6279 28.534 49.5262 28.534 48.4246C28.534 47.9839 28.4018 47.367 28.6662 46.9704C28.8866 46.5738 29.2391 46.5738 29.6357 46.3975C30.517 46.0009 30.0763 44.7671 30.0323 44.018C29.9441 42.9604 29.9001 41.9468 29.7679 40.9333C29.6797 39.9639 29.3713 38.9503 29.3713 37.9809C30.4729 39.3469 30.0323 41.3299 30.7814 42.8722C31.0458 43.2688 31.4424 43.4451 31.9271 43.3129ZM14.2565 11.2767C14.2565 11.3207 14.2565 11.3648 14.2565 11.3648C14.2565 11.3207 14.2565 11.2767 14.2565 11.2767ZM14.2565 11.5411C14.2565 11.5851 14.2565 11.5851 14.2565 11.6292C14.2565 11.5851 14.2565 11.5411 14.2565 11.5411ZM14.2565 11.7173C14.2565 11.7614 14.2565 11.7614 14.2565 11.7614C14.2565 11.7614 14.2565 11.7614 14.2565 11.7173ZM15.4023 14.0529C15.7548 14.4495 16.1514 14.802 16.6361 15.0664C17.209 15.3748 17.6937 15.3748 18.3547 15.3748C18.9276 15.3748 19.5445 15.4189 20.1174 15.3748C20.6021 15.3308 20.9987 15.0664 21.3953 14.802C22.1885 14.2291 22.7613 13.4359 23.1139 12.5105C23.7308 10.7919 23.202 8.72083 21.8359 7.48697C18.9276 4.843 14.2565 7.09038 14.2565 10.9682V11.0123C14.2565 10.9682 14.2565 10.9682 14.2565 10.9682C14.2565 12.0699 14.6531 13.1715 15.4023 14.0529ZM38.2727 16.9172C40.0794 17.6663 42.1064 17.3138 43.3844 15.7274C45.8962 12.5987 42.9878 8.1039 39.1099 8.8971C37.3913 9.24963 36.0253 10.8801 35.849 12.5987C35.6728 14.3613 36.7304 16.168 38.2727 16.9172ZM59.8652 52.038C59.777 52.5228 59.6008 53.0075 59.2923 53.4041C59.1601 53.5803 58.9839 53.7566 58.8076 53.8888C58.5432 54.1091 58.4991 54.1532 58.3669 54.5057C58.0144 55.2989 57.1771 55.7396 56.2958 55.6515C55.9433 55.6074 55.5907 55.4752 55.2823 55.2549C55.0619 55.0786 54.9738 54.9023 54.7975 54.7261C54.5331 54.4617 54.7975 54.5939 54.4891 54.5498C54.0484 54.4617 53.4756 54.5498 52.9908 54.5498C52.462 54.5498 51.9332 54.5498 51.4044 54.5498C51.0519 54.5498 50.6994 54.5498 50.3468 54.5498C50.1706 54.5498 49.9943 54.5498 49.774 54.5498C49.5537 54.4617 49.4215 54.5498 49.3774 54.7261C48.8045 55.2989 48.3639 55.7396 47.4825 55.6515C46.2487 55.5633 46.2046 54.5057 45.4114 53.8447C44.2657 56.1362 41.0489 56.2684 39.6828 54.1091C39.1981 54.9905 38.3608 55.5633 37.3473 55.6515C36.8626 55.6955 36.3778 55.6074 35.8931 55.3871C35.7609 55.2989 35.3202 54.9023 35.188 54.9023C35.0558 54.9023 34.7033 55.2549 34.527 55.343C32.8085 56.1803 30.8695 55.1227 30.3848 53.3159C30.1204 52.3024 30.2967 51.0686 30.2967 50.055V47.367C30.0323 47.4992 29.856 47.4992 29.7679 47.7195C29.6797 47.9399 29.7679 48.4246 29.8119 48.689C29.8119 49.3059 29.8119 49.9669 29.8119 50.5838C29.8119 51.6414 29.9441 52.8312 29.6357 53.8888C29.195 55.2108 27.873 55.8277 26.551 55.5193C26.3307 55.4752 26.1104 55.3871 25.89 55.2549C25.8019 55.2108 25.4934 54.9464 25.4053 54.9464C25.3172 54.9464 25.0087 55.2549 24.9206 55.2989C24.7003 55.4311 24.4799 55.4752 24.2155 55.5633C23.5545 55.6955 22.8054 55.6074 22.2325 55.2549C20.9546 54.4617 21.0427 53.0075 21.0427 51.6855C21.0427 50.5838 21.0427 49.4381 21.0427 48.3365C21.0427 48.2043 21.0868 47.9399 21.0427 47.8077C20.9546 47.5873 21.0427 47.7195 20.8224 47.5873C20.6461 47.4551 20.4699 47.4111 20.2936 47.2789C19.9852 47.0585 19.7208 46.7501 19.5886 46.3975C19.5886 48.2924 19.8089 50.3635 19.5445 52.2143C19.3682 53.5803 18.531 54.8142 17.253 55.343C16.592 55.6515 15.7989 55.6955 15.0938 55.5633C14.6531 55.4752 14.3006 55.2108 13.904 55.1227C13.8159 55.0786 13.7718 55.0345 13.6837 54.9905C13.5955 55.1227 13.4633 55.2108 13.3752 55.2989C13.2871 55.3871 13.1549 55.4311 13.0227 55.4752C12.4057 55.7396 11.6566 55.6074 11.1278 55.1667C10.8634 54.9464 10.6872 54.6379 10.3787 54.5498C9.8499 54.3735 8.96857 54.5498 8.43978 54.5498H5.83987C5.6636 54.5498 5.35514 54.5057 5.17887 54.5498C4.95854 54.6379 4.69414 55.0345 4.47381 55.2108C3.90095 55.6515 3.19589 55.7396 2.53489 55.3871C2.27049 55.2549 2.00609 55.0345 1.82983 54.8142C1.65356 54.5939 1.6095 54.2854 1.4773 54.0651C1.38917 53.9329 1.12477 53.8447 0.992569 53.7566C0.816304 53.5803 0.640039 53.4041 0.50784 53.1838C0.155309 52.655 0.0671767 52.038 0.0671767 51.4211C0.0231103 49.7025 0.0671767 47.9839 0.0671767 46.2653C0.0671767 44.5467 0.0671767 42.8282 0.0671767 41.1096C0.0671767 39.7435 -0.241288 38.0249 0.463774 36.747C0.728172 36.2623 1.12477 35.9098 1.6095 35.6454C1.78576 35.5572 2.22643 35.5132 2.35863 35.381C2.53489 35.2047 2.44676 34.8081 2.44676 34.5437C2.44676 33.2658 2.27049 31.7235 2.75522 30.4896C2.93149 30.093 3.15182 29.7405 3.50435 29.5201C3.68062 29.3879 3.85688 29.2998 4.03315 29.2557C4.16534 29.2117 4.65007 29.1235 4.73821 29.0354C4.82634 28.8591 4.69414 28.0219 4.69414 27.8015C4.69414 27.4931 4.69414 27.1846 4.73821 26.9202C4.78227 26.3033 4.87041 25.6864 5.0026 25.0694C5.5314 22.6899 6.67712 20.4865 8.43978 18.768C10.0702 17.1375 12.6701 15.4189 15.0497 15.4189C13.2871 14.0088 12.4939 11.6733 12.9786 9.46996C13.904 5.50399 18.7072 3.74134 22.0122 5.98872C25.185 8.14797 25.3172 12.9953 22.3207 15.4189C26.4629 15.7274 28.8865 20.2221 30.0763 23.7034C30.7814 22.3373 31.4424 20.8831 32.4559 19.6933C33.5135 18.4595 34.8796 17.8866 36.3778 17.446C34.7474 16.0358 33.9982 13.7444 34.6152 11.6733C35.188 9.82249 36.7304 8.28017 38.6252 7.8395C39.4184 7.66324 40.0353 7.79544 40.7845 7.88357C41.5777 7.9717 42.3708 8.28017 43.0318 8.72083C45.9843 10.7038 46.2927 14.9782 43.6488 17.3578C46.6453 18.0629 48.7605 20.0459 50.2587 22.6458C51.0078 23.9237 51.5807 25.3338 52.0654 26.744C52.2417 27.2287 52.3739 27.6693 52.5061 28.1541C52.5502 28.2863 52.5942 28.5066 52.6383 28.6388C52.8146 28.9913 52.7264 28.9032 53.123 28.9032C53.8281 28.9032 54.5772 28.8591 55.2382 29.0354C56.428 29.3439 57.1331 30.2693 57.2653 31.4591C57.3534 32.3844 57.2653 33.3539 57.2653 34.3234C57.2653 34.5878 57.1771 35.0284 57.2653 35.2928C57.3534 35.5132 57.4415 35.4691 57.7059 35.5572C58.7635 35.9097 59.4686 36.6589 59.6889 37.7605C59.8652 38.5978 59.777 39.4791 59.777 40.3164C59.777 41.2418 59.777 42.2112 59.777 43.1366C59.777 44.8111 59.777 46.4416 59.777 48.1161C59.9533 49.3059 60.1296 50.7601 59.8652 52.038ZM6.14833 30.0489C6.1924 30.0489 6.1924 30.0489 6.14833 30.0489V30.0489Z" fill="#BEB400"/>
</svg>
