<svg width="44" height="45" viewBox="0 0 44 45" fill="none" xmlns="http://www.w3.org/2000/svg">
    <path d="M31.4961 12.7812L18.0469 18.582C17.7891 18.6966 17.6029 18.8828 17.4883 19.1406L11.3008 31.5586C11.043 32.1315 11.1289 32.6328 11.5586 33.0625C11.6159 33.1198 11.6732 33.1771 11.7305 33.2344C11.8164 33.2917 11.888 33.3346 11.9453 33.3633C12.0312 33.3919 12.1172 33.4206 12.2031 33.4492C12.2891 33.4492 12.375 33.4492 12.4609 33.4492C12.6615 33.4492 12.8477 33.4062 13.0195 33.3203L26.168 27.8633C26.2253 27.8346 26.2682 27.806 26.2969 27.7773C26.3542 27.7487 26.3971 27.7201 26.4258 27.6914C26.4831 27.6628 26.526 27.6341 26.5547 27.6055C26.5833 27.5482 26.612 27.5052 26.6406 27.4766C26.6693 27.4193 26.6979 27.3763 26.7266 27.3477L33.2148 14.5859C33.5299 14.013 33.4583 13.4974 33 13.0391C32.5703 12.5807 32.069 12.4948 31.4961 12.7812ZM15.3828 29.3242L19.1211 21.6758L22.9023 26.4023L15.3828 29.3242ZM25.1367 24.8125L21.3125 20L28.918 17.0352L25.1367 24.8125ZM30.5508 2.51172C27.8294 1.33724 24.9792 0.75 22 0.75C19.0208 0.75 16.1706 1.33724 13.4492 2.51172C10.7279 3.65755 8.37891 5.21875 6.40234 7.19531C4.45443 9.14323 2.89323 11.4779 1.71875 14.1992C0.572917 16.9206 0 19.7708 0 22.75C0 25.7292 0.572917 28.5794 1.71875 31.3008C2.89323 34.0221 4.45443 36.3711 6.40234 38.3477C8.37891 40.2956 10.7279 41.8424 13.4492 42.9883C16.1706 44.1628 19.0208 44.75 22 44.75C24.9792 44.75 27.8294 44.1628 30.5508 42.9883C33.2721 41.8424 35.6068 40.2956 37.5547 38.3477C39.5312 36.3711 41.0924 34.0221 42.2383 31.3008C43.4128 28.5794 44 25.7292 44 22.75C44 19.7708 43.4128 16.9206 42.2383 14.1992C41.0924 11.4779 39.5312 9.14323 37.5547 7.19531C35.6068 5.21875 33.2721 3.65755 30.5508 2.51172ZM22 42.043C19.9089 42.043 17.875 41.7279 15.8984 41.0977C13.9505 40.4388 12.1888 39.5078 10.6133 38.3047C9.03776 37.1016 7.64844 35.7122 6.44531 34.1367C5.27083 32.5612 4.35417 30.7995 3.69531 28.8516C3.0651 26.875 2.75 24.8411 2.75 22.75C2.75 20.1432 3.2513 17.651 4.25391 15.2734C5.28516 12.8958 6.66016 10.8477 8.37891 9.12891C10.0977 7.41016 12.1458 6.04948 14.5234 5.04688C16.901 4.01562 19.3932 3.5 22 3.5C24.6068 3.5 27.099 4.01562 29.4766 5.04688C31.8542 6.04948 33.9023 7.41016 35.6211 9.12891C37.3398 10.8477 38.7005 12.8958 39.7031 15.2734C40.7344 17.651 41.25 20.1432 41.25 22.75C41.25 25.3568 40.7344 27.849 39.7031 30.2266C38.7005 32.6042 37.3398 34.6667 35.6211 36.4141C33.9023 38.1328 31.8542 39.5078 29.4766 40.5391C27.099 41.5417 24.6068 42.043 22 42.043Z" fill="white"/>
</svg>
