<svg width="45" height="44" viewBox="0 0 45 44" fill="none" xmlns="http://www.w3.org/2000/svg">
    <path d="M22 9.59995C23.9 9.59995 25.4 8.09995 25.4 6.19995C25.4 4.29995 23.9 2.69995 22 2.69995C20.1 2.69995 18.6 4.19995 18.6 6.09995C18.6 7.99995 20.1 9.59995 22 9.59995ZM22 4.09995C23.1 4.09995 24.1 4.99995 24.1 6.19995C24.1 7.39995 23.1 8.19995 22 8.19995C20.9 8.19995 19.9 7.29995 19.9 6.09995C19.9 4.89995 20.9 4.09995 22 4.09995Z" fill="white"/>
    <path d="M22.7001 0H21.3V1.4H22.7001V0Z" fill="white"/>
    <path d="M22.7001 11H21.3V12.4H22.7001V11Z" fill="white"/>
    <path d="M28.2001 5.5H26.8V6.9H28.2001V5.5Z" fill="white"/>
    <path d="M17.2 5.5H15.8V6.9H17.2V5.5Z" fill="white"/>
    <path d="M25.9182 9.09216L24.9287 10.0825L25.9191 11.072L26.9086 10.0817L25.9182 9.09216Z" fill="white"/>
    <path d="M18.1045 1.31604L17.115 2.3064L18.1054 3.29592L19.0949 2.30556L18.1045 1.31604Z" fill="white"/>
    <path d="M18.125 9.10803L17.1355 10.0984L18.1259 11.0879L19.1154 10.0975L18.125 9.10803Z" fill="white"/>
    <path d="M25.8985 1.30163L24.9089 2.29199L25.8993 3.28151L26.8888 2.29115L25.8985 1.30163Z" fill="white"/>
    <path d="M39.4 16.1L41.1 17.5C41.9 18.2 42.9 18.5 44 18.5V17.1C43.3 17.1 42.6 16.8 42 16.4L39.6 14.5C39.4 14.4 39.2 14.3 39 14.4C38.8 14.4 38.6 14.6 38.5 14.7C36.4 18.5 32.8 21.3 28.7 22.4L28.4 22.5C26.6 21.6 24.9 20.4 23.3 19.1C22.3 18.2 21.3 17.1 20.4 16C20.3 15.9 20.1 15.8 19.9 15.7C19.7 15.7 19.5 15.7 19.4 15.8C15 19.3 9.7 21.9 4.3 23.2H4.1V21.1C5.6 21.1 6.9 19.9 6.9 18.4V12.2H5.5V14.1C4.7 13.8 4.1 13.1 4.1 12.2V11H2.8V12.4C2.8 14.1 4 15.4 5.6 15.8V18.6C5.6 19.4 5 20 4.2 20V19.3C4.2 18.9 3.9 18.6 3.5 18.6C2.7 18.6 2.1 18 2.1 17.2V15.1H0.7V17.2C0.7 18.5 1.6 19.6 2.8 19.9V23.7L0.6 24H0V25.4H0.7H0.8L4.6 24.7C9.7 23.5 14.6 21.2 18.9 18.1C19.3 21.3 21.4 24.5 24.5 26.6C27.2 28.5 30.8 29.6 35.3 30.1L35.5 28.7C34.1 28.5 32.8 28.3 31.6 28C32.5 27.6 33.4 27.1 34.3 26.5C35.7 25.6 37.1 24.6 38.4 23.6C39.1 23.1 39.8 22.5 40.5 22C40.5 22 40.5 22 40.6 22.1L42.2 23.5C42.3 23.6 42.3 23.6 42.4 23.7C42.8 24.1 43.3 24.6 44.1 24.6V23.2C43.9 23.2 43.7 23 43.4 22.7C43.3 22.6 43.2 22.5 43.1 22.5L41.5 21.1C41.4 21 41.2 20.9 41.1 20.7C40.9 20.4 40.5 20.4 40.2 20.6C40 20.7 39.8 20.8 39.7 21C39 21.5 38.3 22.1 37.5 22.6C36.6 23.3 35.7 23.9 34.8 24.6C34.7 24.6 34.5 24.5 34.4 24.5C33.4 24.3 32.5 24.1 31.6 23.8C31.2 23.7 30.8 23.5 30.4 23.3C34.1 22.1 37.3 19.5 39.4 16.1ZM33.2 25.7C31.8 26.5 30.5 27.2 29.1 27.4C27.7 26.9 26.4 26.3 25.3 25.5C22.5 23.6 20.7 20.8 20.3 18C21 18.8 21.7 19.5 22.4 20.2C24.1 21.7 25.9 23 28 23.9C29 24.4 30.1 24.8 31.1 25.2C31.8 25.4 32.5 25.6 33.2 25.7Z" fill="white"/>
    <path d="M42 33.6999C41.8 33.8999 41.5 34.0999 41.3 34.2999C40.7 34.7999 40.1 35.1999 39.5 35.6999C35.9 35.5999 32.2 35.3999 29 33.6999C27.9 33.0999 26.9 32.2999 25.8 31.3999C25.2 30.8999 24.6 30.3999 23.9 29.8999C22.8 29.0999 21.4 28.9999 20.4 29.5999C20 29.7999 19.7 30.0999 19.5 30.4999C18.2 31.6999 17.2 32.3999 16 33.0999V32.9999C13.2 32.3999 10.9 31.1999 8.59998 29.3999C8.29998 29.1999 7.99998 28.8999 7.79998 28.6999C7.09998 28.0999 6.69998 28.0999 6.09998 28.7999C5.59998 29.2999 5.09998 29.7999 4.49998 30.1999C3.29998 31.0999 1.59998 32.2999 0.0999756 32.2999V33.6999C2.09998 33.6999 3.99998 32.3999 5.39998 31.2999C5.99998 30.8999 6.49998 30.3999 7.09998 29.7999C7.39998 29.9999 7.59998 30.1999 7.89998 30.3999C9.99998 32.0999 12.1 33.1999 14.6 33.8999C14.4 34.0999 14.1 34.1999 13.8 34.3999C12.1 35.4999 9.49998 36.0999 5.89998 36.2999C4.89998 35.4999 3.89998 34.5999 2.99998 33.6999L1.99998 34.5999C4.09998 36.7999 6.59997 38.6999 9.39997 40.0999C13.6 42.2999 18 43.4999 22.1 43.4999C22.3 43.4999 22.6 43.4999 22.8 43.4999V42.0999C18.8 42.1999 14.3 41.0999 10.1 38.8999C9.29998 38.4999 8.49998 37.9999 7.79998 37.4999C10.7 37.1999 13 36.4999 14.7 35.4999C15.2 35.1999 15.6 34.9999 16 34.6999C17.3 33.8999 18.3 33.2999 19.5 32.2999C19.7 33.2999 20.2 34.2999 20.9 35.1999C21.9 36.2999 23.1 37.0999 24.2 37.7999L24.9 36.5999C23.9 35.9999 22.7 35.1999 21.9 34.2999C21.2 33.4999 20.8 32.6999 20.7 31.8999C20.6 31.2999 20.8 30.7999 21.3 30.4999C21.9 30.1999 22.7 30.2999 23.3 30.6999C23.9 31.1999 24.5 31.6999 25.1 32.1999C26.2 33.0999 27.3 33.9999 28.5 34.6999C31.5 36.2999 34.9 36.6999 38 36.7999C36.8 37.7999 35.5 38.6999 34.2 39.6999C32.3 41.0999 29.7 42.6999 27 42.3999C27 42.3999 27 42.3999 26.9 42.3999H26.2V43.9999H26.9C27.2 43.9999 27.4 43.9999 27.7 43.9999C30.6 43.9999 33.1 42.3999 35 40.9999C37.6 39.0999 40 37.1999 42.3 35.2999C42.5 35.0999 42.8 34.8999 43 34.6999L43.6 34.1999L42.7 33.0999L42 33.6999Z" fill="white"/>
    <path d="M17.2 26.8H15.8V28.2001H17.2V26.8Z" fill="white"/>
    <path d="M14.5 26.8H13.1V28.2001H14.5V26.8Z" fill="white"/>
    <path d="M11.7 26.8H10.3V28.2001H11.7V26.8Z" fill="white"/>
    <path d="M18.6 24H17.2V25.4H18.6V24Z" fill="white"/>
    <path d="M15.8 24H14.4V25.4H15.8V24Z" fill="white"/>
    <path d="M13.1 24H11.7V25.4H13.1V24Z" fill="white"/>
</svg>
