<svg width="44" height="44" viewBox="0 0 44 44" fill="none" xmlns="http://www.w3.org/2000/svg">
    <path d="M33.2698 33.8535C33.2698 33.9534 33.1671 33.9533 33.1671 34.0532C32.7563 35.5505 31.7293 36.5487 30.0862 36.6485C28.3403 36.8481 26.9026 36.2492 25.9783 34.7519C24.746 32.6557 23.6163 30.5595 22.384 28.4633C22.1786 28.064 21.9732 27.6647 21.6651 27.2654C21.1516 26.6665 20.6381 26.6665 20.1246 27.1656C19.8165 27.4651 19.5085 27.9642 19.2004 28.3634C18.7896 28.9624 18.3788 29.6611 17.968 30.26C16.7356 31.957 14.6817 32.0568 13.244 30.4597C13.244 30.4597 13.1413 30.3598 13.0386 30.3598C12.9359 30.4597 12.8332 30.6593 12.7305 30.7591C10.2658 34.9515 7.49297 39.0442 4.82286 43.1368C4.30938 43.8355 3.89859 44.0352 3.38511 43.7357C2.87163 43.4362 2.87163 42.9371 3.38511 42.2384C8.21184 34.9515 13.0386 27.5649 17.8653 20.1782C18.1734 19.7789 18.4815 19.4795 19.0977 19.5793C21.1516 19.5793 23.2055 19.5793 25.2595 19.5793C25.6702 19.5793 26.081 19.6791 26.2864 20.0784C29.1619 24.4705 32.0374 28.8625 34.8102 33.2546C36.7615 36.349 38.8154 39.3436 40.7666 42.438C40.8693 42.6377 41.0747 43.037 40.972 43.2366C40.8693 43.5361 40.5612 43.8355 40.3558 43.9353C39.945 44.135 39.637 43.8355 39.4316 43.5361C38.61 42.2384 37.7884 41.0406 36.9669 39.7429C35.8372 37.9461 34.6048 36.1494 33.4752 34.3526C33.4752 34.153 33.3725 33.9534 33.2698 33.8535ZM22.0759 21.1764C21.2543 21.1764 20.4327 21.1764 19.6112 21.1764C19.2004 21.1764 18.995 21.2762 18.7896 21.5757C17.4545 23.5721 16.1195 25.6683 14.7844 27.6647C14.579 27.9642 14.4763 28.2636 14.3736 28.5631C14.1682 29.162 14.2709 29.4615 14.9898 29.8607C15.5033 30.1602 15.8114 30.0604 16.2222 29.6611C16.633 29.162 16.941 28.6629 17.2491 28.1638C17.7626 27.4651 18.1734 26.6665 18.7896 26.0676C19.0977 25.6683 19.7138 25.4687 20.1246 25.3688C21.357 25.1692 22.692 25.7681 23.3082 26.966C23.719 27.6647 24.0271 28.3634 24.4379 29.0622C25.3622 30.7591 26.3891 32.4561 27.4161 34.153C28.0323 35.1512 29.1619 35.4506 30.1889 35.0514C31.2158 34.6521 31.7293 33.6539 31.5239 32.5559C31.3185 31.6575 31.0105 30.7591 30.5997 29.9606C28.8538 27.0658 27.0053 24.3706 25.1568 21.4759C25.0541 21.2762 24.746 21.1764 24.5406 21.1764C23.719 21.1764 22.8974 21.1764 22.0759 21.1764Z" fill="white"/>
    <path d="M33.9886 3.20883C34.9129 3.10901 35.7344 2.90937 36.556 2.90937C38.4046 2.90937 40.0477 4.50649 40.0477 6.30325C40.0477 8.10001 38.6099 9.49749 36.6587 9.49749C35.1183 9.49749 33.5778 9.69713 32.0374 10.296C28.6484 11.5937 26.4918 13.9894 25.4648 17.3833C25.2594 18.082 24.7459 18.3815 24.1297 18.082C23.719 17.8824 23.6163 17.4831 23.8217 17.0838C25.2594 12.3923 28.3403 9.39767 33.2697 8.29965C34.2967 8.10001 35.4264 8.00019 36.556 8.00019C37.6857 7.90037 38.3019 7.50109 38.3019 6.60271C38.3019 5.40487 37.6857 4.70613 36.556 4.60631C36.1452 4.60631 35.7344 4.60631 35.4264 4.60631C34.9129 4.70613 34.5021 4.80595 34.3994 5.30505C34.2967 5.70433 33.9886 5.90397 33.5778 5.80415C33.167 5.80415 32.9616 5.60451 32.8589 5.20523C32.8589 5.00559 32.7562 4.90577 32.7562 4.70613C32.1401 2.70973 30.3942 1.51189 28.0322 1.71153C25.7729 1.81135 24.6432 2.80955 24.4378 5.00559C24.3351 5.80415 24.0271 6.00379 23.2055 5.90397C22.692 5.80415 22.1785 5.80415 21.665 5.80415C20.7408 5.90397 20.2273 6.50289 20.1246 7.40127C19.9192 8.10001 20.4327 8.79875 21.2542 8.99839C21.5623 9.09821 21.8704 9.29785 22.0758 9.49749C22.1785 9.69713 22.0758 10.0964 21.9731 10.296C21.7677 10.5955 21.3569 10.5955 20.9462 10.4957C19.7138 9.99659 18.7895 9.19803 18.5841 7.90037C18.3787 6.70253 18.8922 5.70433 19.8165 4.90577C20.6381 4.20703 21.5623 4.00739 22.5893 4.10721C22.8974 4.10721 23.1028 4.00739 23.1028 3.70793C23.6163 1.41207 25.3621 0.114416 27.8268 0.0145959C29.6754 -0.085224 31.4212 0.314056 32.7562 1.61171C33.2697 2.11081 33.5778 2.70973 33.9886 3.20883Z" fill="white"/>
    <path d="M7.90374 7.90039C10.9846 8.00021 13.9628 8.69895 16.4275 10.6953C18.4815 12.3923 19.8165 14.4885 20.33 17.0838C20.4327 17.5829 20.1246 18.082 19.7138 18.1818C19.2003 18.2817 18.7896 17.9822 18.6869 17.4831C17.7626 13.2907 14.9898 10.895 10.7792 9.89679C9.75228 9.69715 8.72531 9.69715 7.69835 9.59733C7.49295 9.59733 7.18486 9.59733 6.97947 9.49751C6.56869 9.29787 6.36329 8.99841 6.46599 8.59913C6.46599 8.19985 6.77408 7.90039 7.18487 7.90039C7.39026 7.90039 7.59565 7.90039 7.90374 7.90039Z" fill="white"/>
    <path d="M13.9628 6.60271C13.3466 6.60271 12.7305 5.90397 12.7305 5.40487C12.7305 4.80595 13.3466 4.20703 13.9628 4.20703C14.579 4.20703 15.2979 4.90577 15.2979 5.40487C15.1952 5.90397 14.579 6.60271 13.9628 6.60271ZM14.579 5.30505C14.3736 5.10541 14.1682 4.90577 14.0655 4.90577C13.9628 4.90577 13.6547 5.10541 13.6547 5.30505C13.6547 5.40487 13.8601 5.70433 14.0655 5.70433C14.1682 5.70433 14.2709 5.50469 14.579 5.30505Z" fill="white"/>
    <path d="M33.9887 12.2923C34.6049 12.2923 35.2211 12.991 35.2211 13.4901C35.2211 14.0891 34.5022 14.688 33.9887 14.688C33.3725 14.688 32.7563 13.9892 32.7563 13.4901C32.7563 12.8912 33.3725 12.1925 33.9887 12.2923ZM34.5022 13.4901C34.2968 13.2905 34.0914 13.0909 33.9887 13.0909C33.886 13.0909 33.5779 13.2905 33.5779 13.4901C33.5779 13.59 33.7833 13.8894 33.9887 13.8894C34.0914 13.8894 34.2968 13.6898 34.5022 13.4901Z" fill="white"/>
    <path d="M8.51989 12.9913C8.51989 13.5902 7.80102 14.1891 7.28753 14.1891C6.67135 14.1891 6.05518 13.4904 6.05518 12.9913C6.05518 12.3924 6.77405 11.7935 7.28753 11.7935C7.90371 11.7935 8.51989 12.3924 8.51989 12.9913ZM7.80102 12.9913C7.59562 12.7917 7.39023 12.592 7.28753 12.592C7.08214 12.592 6.97944 12.7917 6.87675 12.9913C6.97944 13.0911 7.18484 13.3906 7.28753 13.3906C7.39023 13.3906 7.59562 13.1909 7.80102 12.9913Z" fill="white"/>
</svg>
