<svg width="20" height="44" viewBox="0 0 20 44" fill="none" xmlns="http://www.w3.org/2000/svg">
    <path d="M2.28037 36.3734C0 36.1734 0 36.1734 0 34.0738C0 29.8746 0 25.7753 0.198293 21.5761C0.29744 18.5766 1.18976 15.7771 2.47867 13.0776C3.47013 11.078 4.56075 9.3783 6.64283 8.2785C6.44454 7.97855 6.24624 7.67861 6.1471 7.37866C4.95734 5.17906 6.44454 2.57953 8.9232 2.57953C9.71638 2.57953 10.2121 2.37957 10.7078 1.77968C12.2942 -0.019993 14.872 -0.519902 16.9541 0.579898C19.0362 1.57972 20.3251 3.97928 19.9285 6.27886C19.5319 8.77841 17.7473 10.5781 15.3677 10.878C14.7729 10.978 14.0788 10.878 13.484 10.878C13.2857 11.7779 13.0874 12.5777 12.9882 13.3776C12.5916 15.1772 12.9882 16.9769 13.9797 18.4766C14.7729 19.7764 15.7643 21.0762 16.8549 22.176C17.7473 23.1758 18.3421 24.0756 17.9456 25.3754C17.8464 25.5754 18.0447 25.9753 18.1438 26.1752C18.3421 26.8751 18.7387 27.575 18.7387 28.1749C18.8379 32.974 18.7387 37.7731 18.7387 42.6722C18.7387 42.7722 18.7387 42.9722 18.7387 43.0722C18.6396 43.3721 18.4413 43.5721 18.3421 43.872C18.1438 43.5721 17.8464 43.3721 17.8464 43.0722C17.7473 42.2723 17.8464 41.3725 17.8464 40.5726C17.8464 36.5733 17.8464 32.6741 17.8464 28.6748C17.8464 28.1749 17.7473 27.675 17.6481 27.275C17.4498 26.8751 17.1524 26.5752 16.5575 26.7751C16.1609 26.9751 15.8635 26.9751 15.6652 26.9751C14.6737 26.6752 14.2771 27.1751 14.0788 28.0749C14.0788 28.2749 13.6822 28.3748 13.5831 28.5748C13.484 28.3748 13.1865 28.0749 13.1865 27.8749C13.2857 27.375 13.484 26.7751 13.6822 26.1752C13.3848 25.8753 12.8891 25.4754 12.2942 24.9755C12.2942 28.7748 12.2942 32.3741 12.2942 36.1734C11.4019 36.2734 10.6087 36.2734 9.71638 36.3734C9.71638 37.7731 9.71638 39.1729 9.71638 40.5726C9.71638 42.9722 8.72491 43.972 6.34539 43.872C5.84966 43.872 5.25478 44.072 4.75904 43.972C3.37099 43.772 2.37952 42.5723 2.28037 41.0725C2.18123 40.0727 2.28037 38.9729 2.28037 37.8731C2.28037 37.3732 2.28037 36.9733 2.28037 36.3734ZM0.991467 35.1736C1.4872 35.1736 1.78464 35.2736 2.08208 35.2736C3.27184 35.3736 3.37099 35.3736 3.37099 36.5733C3.37099 37.9731 3.37099 39.3728 3.37099 40.6726C3.37099 41.5724 3.76758 42.3723 4.56075 42.7722C5.25478 43.0722 6.04795 43.0722 6.54368 42.3723C6.94027 41.8724 7.13856 41.1725 7.23771 40.5726C7.33686 38.8729 7.23771 37.1732 7.23771 35.1736C8.72491 35.1736 10.0138 35.1736 11.4019 35.1736C11.4019 34.6737 11.4019 34.4737 11.4019 34.1738C11.4019 30.6744 11.4019 27.1751 11.4019 23.5757C11.4019 23.2758 11.6002 22.9758 11.6993 22.7759C11.9968 22.8758 12.2942 22.9758 12.4925 23.1758C13.2857 23.9756 13.9797 24.7755 14.7729 25.4754C15.3677 25.9753 16.2601 25.8753 16.7558 25.3754C17.3507 24.7755 17.2515 23.9756 16.6566 23.2758C16.3592 22.9758 15.9626 22.6759 15.6652 22.3759C12.9882 19.3765 11.2036 16.1771 12.3933 11.9778C12.5916 11.178 12.2942 10.6781 11.7985 10.0782C10.2121 8.77841 7.93174 8.47846 6.34539 9.77822C5.55222 10.3781 4.75904 11.278 4.16416 12.1778C2.87525 14.2774 2.08208 16.577 1.58635 18.8766C0.89232 21.876 1.09061 24.8755 0.991467 27.9749C0.89232 30.3745 0.991467 32.6741 0.991467 35.1736ZM12.0959 7.57862C14.5746 7.47864 16.6566 6.37884 18.3421 4.67915C18.6396 4.37921 18.7387 4.07926 18.5404 3.57935C17.7473 1.77968 15.4669 0.67988 13.484 1.27977C11.3027 1.87966 9.91467 3.97928 10.3113 6.0789C10.5096 7.47864 10.7078 7.57862 12.0959 7.57862ZM11.7985 8.57844C12.9882 9.87821 14.7729 10.1782 16.3592 9.57826C17.9456 8.97837 18.937 7.27868 18.8379 5.67897C16.8549 7.47864 14.4754 8.47846 11.7985 8.57844ZM9.31979 3.67933C8.32832 3.47937 7.53515 3.77932 7.03942 4.67915C6.54368 5.47901 6.64283 6.47883 7.23771 7.27868C7.83259 7.97855 8.52662 8.17852 9.51808 7.87857C9.41894 6.47883 9.41894 5.17906 9.31979 3.67933ZM8.03088 42.4723C8.62576 41.9724 8.72491 41.7724 8.72491 40.9725C8.72491 39.6728 8.72491 38.373 8.72491 36.9733C8.72491 36.7733 8.62576 36.5733 8.52662 36.2734C7.73344 36.3734 7.93174 36.9733 7.93174 37.3732C8.03088 39.0729 8.03088 40.7726 8.03088 42.4723Z" fill="white"/>
</svg>
