<svg xmlns="http://www.w3.org/2000/svg" xmlns:xlink="http://www.w3.org/1999/xlink" width="32.009" height="32" viewBox="0 0 32.009 32"><defs><style>.a{fill:url(#a);}.b{fill:url(#b);}.c{fill:#fff;}</style><radialGradient id="a" cx="0.266" cy="1.077" r="0.991" gradientTransform="matrix(0, -1, -0.93, 0, -6.668, -7.473)" gradientUnits="objectBoundingBox"><stop offset="0" stop-color="#fd5"/><stop offset="0.1" stop-color="#fd5"/><stop offset="0.5" stop-color="#ff543e"/><stop offset="1" stop-color="#c837ab"/></radialGradient><radialGradient id="b" cx="-0.191" cy="0.057" r="0.459" gradientTransform="matrix(0.196, 0.981, 4.042, -0.809, 36.423, -12.741)" gradientUnits="objectBoundingBox"><stop offset="0" stop-color="#3771c8"/><stop offset="0.128" stop-color="#3771c8"/><stop offset="1" stop-color="#60f" stop-opacity="0"/></radialGradient></defs><rect class="a" width="32.009" height="32" rx="4"/><rect class="b" width="32.009" height="32" rx="4"/><path class="c" d="M16,8c-2.173,0-2.445.01-3.3.048a5.861,5.861,0,0,0-1.941.372,4.1,4.1,0,0,0-2.341,2.339A5.85,5.85,0,0,0,8.053,12.7C8.014,13.554,8,13.827,8,16s.01,2.444.049,3.3a5.89,5.89,0,0,0,.371,1.941,4.091,4.091,0,0,0,2.34,2.341,5.868,5.868,0,0,0,1.942.372c.853.039,1.126.048,3.3.048s2.445-.009,3.3-.048a5.874,5.874,0,0,0,1.943-.372,4.1,4.1,0,0,0,2.339-2.34,5.925,5.925,0,0,0,.372-1.942c.038-.853.048-1.125.048-3.3s-.01-2.445-.048-3.3a5.913,5.913,0,0,0-.372-1.941,4.086,4.086,0,0,0-2.34-2.34A5.88,5.88,0,0,0,19.3,8.048C18.448,8.01,18.176,8,16,8Zm-.718,1.442c.213,0,.451,0,.718,0,2.136,0,2.389.007,3.233.046a4.426,4.426,0,0,1,1.485.275,2.651,2.651,0,0,1,1.518,1.518,4.419,4.419,0,0,1,.276,1.485c.038.844.046,1.1.046,3.232s-.008,2.388-.046,3.232a4.419,4.419,0,0,1-.276,1.485,2.654,2.654,0,0,1-1.518,1.517,4.419,4.419,0,0,1-1.485.276c-.844.038-1.1.046-3.233.046s-2.389-.008-3.233-.046a4.445,4.445,0,0,1-1.485-.276,2.649,2.649,0,0,1-1.519-1.518,4.426,4.426,0,0,1-.275-1.485c-.039-.843-.046-1.1-.046-3.233s.007-2.388.046-3.232a4.426,4.426,0,0,1,.275-1.485,2.649,2.649,0,0,1,1.519-1.518,4.419,4.419,0,0,1,1.485-.276c.738-.034,1.024-.044,2.515-.045Zm4.988,1.328a.96.96,0,1,0,.96.96.96.96,0,0,0-.96-.96ZM16,11.892A4.108,4.108,0,1,0,20.113,16,4.108,4.108,0,0,0,16,11.892Zm0,1.441A2.667,2.667,0,1,1,13.338,16,2.667,2.667,0,0,1,16,13.333Z"/></svg>