<svg xmlns="http://www.w3.org/2000/svg" width="32" height="32" viewBox="0 0 32 32"><defs><style>.a{fill:#e27e35;}</style></defs><path class="a" d="M527.982,228.94a2.386,2.386,0,1,0-2.374-2.386A2.38,2.38,0,0,0,527.982,228.94Z" transform="translate(-512 -216)"/><path class="a" d="M512,220v24a4,4,0,0,0,4,4h24a4,4,0,0,0,4-4V220a4,4,0,0,0-4-4H516A4,4,0,0,0,512,220Zm15.982.783a5.772,5.772,0,1,1-5.742,5.771A5.757,5.757,0,0,1,527.982,220.783Zm5.5,19.593a1.574,1.574,0,0,1,0,2.219,1.555,1.555,0,0,1-2.208,0l-3.369-3.3-3.06,3.277a1.554,1.554,0,0,1-2.207.04,1.575,1.575,0,0,1-.041-2.219l3.294-3.46a9.5,9.5,0,0,1-3.871-1.642,1.575,1.575,0,0,1-.242-2.206,1.556,1.556,0,0,1,2.2-.242,6.93,6.93,0,0,0,3.932,1.146h0a6.763,6.763,0,0,0,3.9-1.146,1.555,1.555,0,0,1,2.2.242,1.574,1.574,0,0,1-.241,2.206,9.319,9.319,0,0,1-3.75,1.624Z" transform="translate(-512 -216)"/><path class="a" d="M527.9,233.993Z" transform="translate(-512 -216)"/></svg>