<svg width="64" height="64" viewBox="0 0 64 64" fill="none" xmlns="http://www.w3.org/2000/svg">
    <path d="M62.8139 7.16021C63.1968 7.52615 63.5 7.96736 63.7042 8.45611C63.9084 8.94486 64.0093 9.47058 64.0005 10.0002V44.0002C64.0005 45.0611 63.5791 46.0785 62.829 46.8286C62.0788 47.5788 61.0614 48.0002 60.0005 48.0002H34.0005V54.0002H44.0005C44.531 54.0002 45.0397 54.2109 45.4147 54.586C45.7898 54.9611 46.0005 55.4698 46.0005 56.0002C46.0005 56.5306 45.7898 57.0394 45.4147 57.4144C45.0397 57.7895 44.531 58.0002 44.0005 58.0002H20.0005C19.4701 58.0002 18.9614 57.7895 18.5863 57.4144C18.2112 57.0394 18.0005 56.5306 18.0005 56.0002C18.0005 55.4698 18.2112 54.9611 18.5863 54.586C18.9614 54.2109 19.4701 54.0002 20.0005 54.0002H30.0005V48.0002H4.00053C3.4756 48.0037 2.95544 47.9003 2.47177 47.6963C1.98809 47.4923 1.55102 47.192 1.18719 46.8135C0.808784 46.4497 0.508419 46.0126 0.304404 45.529C0.100389 45.0453 -0.00300364 44.5251 0.000527298 44.0002V10.0002C-0.00825028 9.47058 0.0926428 8.94486 0.296863 8.45611C0.501083 7.96736 0.804213 7.52615 1.18719 7.16021C1.55422 6.78787 1.99248 6.49326 2.47583 6.29396C2.95919 6.09466 3.47773 5.99476 4.00053 6.00021H60.0005C60.5233 5.99476 61.0419 6.09466 61.5252 6.29396C62.0086 6.49326 62.4468 6.78787 62.8139 7.16021ZM60.0005 10.0002H4.00053V44.0002H60.0005V10.0002Z" fill="#BEB400"/>
    <path d="M28.4672 28.1735V30.2402H36.8806V32.2135H28.4672V37.5469H25.6806V32.2135H24.2539V30.2402H25.6806V28.1735H24.2539V25.7735H25.6806V16.4402H32.2672C33.7124 16.3725 35.1579 16.5668 36.5339 17.0135C37.5148 17.3915 38.3377 18.0921 38.8672 19.0002C39.4528 19.9543 39.7577 21.0541 39.7472 22.1735C39.7844 23.1768 39.5641 24.1729 39.1072 25.0669C38.6856 25.8342 38.0753 26.4812 37.3339 26.9469C36.5827 27.4161 35.7508 27.7417 34.8806 27.9069C33.9399 28.0845 32.9846 28.1738 32.0272 28.1735H28.4672ZM32.0806 25.7735C32.6975 25.7756 33.3133 25.722 33.9206 25.6135C34.4614 25.5289 34.9815 25.3434 35.4539 25.0669C35.8864 24.8007 36.2442 24.4291 36.4939 23.9869C36.7705 23.4427 36.9036 22.8369 36.8806 22.2269C36.8949 21.682 36.7758 21.1419 36.5339 20.6535C36.3019 20.2313 35.9728 19.8703 35.5739 19.6002C35.1385 19.3157 34.6551 19.1124 34.1472 19.0002C33.5646 18.8739 32.97 18.8113 32.3739 18.8135H28.4672V25.7735H32.0806Z" fill="#BEB400"/>
</svg>
