<svg width="64" height="64" viewBox="0 0 64 64" fill="none" xmlns="http://www.w3.org/2000/svg">
    <path d="M63.999 29.8792V59.9992C63.9998 60.7011 63.8158 61.3909 63.4656 61.9992C63.1269 62.6181 62.6179 63.1271 61.999 63.4658C61.3906 63.816 60.7009 64 59.999 63.9992H3.99897C3.47618 64.0046 2.95763 63.9047 2.47428 63.7054C1.99093 63.5061 1.55267 63.2115 1.18564 62.8392C0.80266 62.4732 0.49953 62.032 0.29531 61.5433C0.09109 61.0545 -0.00980309 60.5288 -0.0010255 59.9992V30.0658C-0.0321562 29.3885 0.119819 28.7152 0.438917 28.1169C0.758016 27.5186 1.23244 27.0174 1.81231 26.6658L11.999 16.5058V9.93251C12.0153 9.42633 12.231 8.9471 12.599 8.59918C12.7776 8.40703 12.9944 8.25438 13.2355 8.15105C13.4766 8.04771 13.7367 7.99598 13.999 7.99918H20.6656L27.919 1.75918C28.3383 1.28643 28.8397 0.893441 29.399 0.59918C29.9608 0.323507 30.5646 0.143267 31.1856 0.065847C31.8088 -0.0274828 32.4425 -0.0274828 33.0656 0.065847C33.6828 0.141485 34.2825 0.32185 34.839 0.59918C35.4109 0.869788 35.9301 1.24 36.3723 1.69251L43.6923 7.99918H49.999C50.25 8.00507 50.4974 8.0612 50.7264 8.16425C50.9554 8.2673 51.1614 8.41519 51.3323 8.59918C51.7003 8.9471 51.916 9.42633 51.9323 9.93251V16.3725L62.3723 26.8792L62.7456 27.2525C62.8596 27.3669 62.9623 27.4919 63.0523 27.6258V27.6925C63.1733 27.8138 63.2806 27.9479 63.3723 28.0925C63.4514 28.2443 63.5226 28.4001 63.5856 28.5592C63.651 28.724 63.7045 28.8933 63.7456 29.0658C63.7653 29.2297 63.7653 29.3953 63.7456 29.5592C63.8485 29.6498 63.9343 29.7582 63.999 29.8792ZM3.99897 34.0658V57.2525L16.8123 45.3325L3.99897 34.0658ZM6.37231 27.6925L4.69231 29.3325L11.999 35.7458V22.1858L6.50564 27.6925H6.37231ZM6.87897 59.9992H57.3323L33.3323 38.2525C32.9095 37.9134 32.3808 37.7341 31.839 37.7458C31.2688 37.7402 30.7154 37.9388 30.279 38.3058L21.6523 46.3058C21.6179 46.3842 21.5778 46.46 21.5323 46.5325L21.3323 46.6658C21.1383 46.8889 20.9085 47.0782 20.6523 47.2258L6.87897 59.9992ZM15.999 11.9992V39.3058L19.7456 42.6658L27.7456 35.2925C27.9793 35.05 28.2437 34.8393 28.5323 34.6658C28.825 34.5003 29.1278 34.3533 29.439 34.2258C29.7414 34.0953 30.0534 33.9883 30.3723 33.9058C30.6912 33.8255 31.0172 33.7764 31.3456 33.7592C31.6651 33.7325 31.9862 33.7325 32.3056 33.7592C32.6344 33.7733 32.9607 33.8225 33.279 33.9058L34.1856 34.1858C34.4912 34.296 34.7858 34.4344 35.0656 34.5992C35.3549 34.7579 35.6274 34.9456 35.879 35.1592L44.439 42.9058L47.999 39.7458V11.9992H15.999ZM26.6656 7.99918H37.5323L33.5323 4.57251C33.3276 4.4015 33.0984 4.26217 32.8523 4.15918C32.6206 4.05878 32.3715 4.00444 32.119 3.99918C31.5868 3.97039 31.0646 4.15242 30.6656 4.50585L26.6656 7.99918ZM59.999 57.0658V34.4392L47.3723 45.6259L59.999 57.0658ZM51.999 21.9992V36.1858L59.5056 29.5192L56.0656 26.0792L51.999 21.9992Z" fill="#BEB400"/>
    <path d="M41.8933 17.9734C41.5839 17.4282 41.241 16.9027 40.8666 16.4L30.5466 26.6667L23.4133 19.5334L22.08 20.8667L30.5466 29.3334L41.8933 17.9734Z" fill="#BEB400"/>
</svg>
