<svg width="64" height="64" viewBox="0 0 64 64" fill="none" xmlns="http://www.w3.org/2000/svg">
    <path d="M61 11.8133C61.9037 12.3435 62.6565 13.0963 63.1867 14C63.7276 14.9065 64.0089 15.9443 64 17V47C64.0053 47.7894 63.8538 48.572 63.5541 49.3023C63.2545 50.0327 62.8127 50.6962 62.2545 51.2545C61.6963 51.8127 61.0327 52.2544 60.3024 52.5541C59.572 52.8537 58.7894 53.0053 58 53H6.00001C5.20964 53.0126 4.42497 52.8642 3.69376 52.5639C2.96255 52.2636 2.30008 51.8177 1.74667 51.2533C1.18225 50.6999 0.736325 50.0374 0.436046 49.3062C0.135768 48.575 -0.0125881 47.7903 7.37276e-06 47V17C-0.00891963 15.9443 0.272437 14.9065 0.813341 14C1.3435 13.0963 2.09631 12.3435 3.00001 11.8133C3.90658 11.2724 4.94437 10.991 6.00001 11H58C59.0556 10.991 60.0934 11.2724 61 11.8133ZM4.60001 15.6C4.40786 15.7785 4.25521 15.9954 4.15188 16.2365C4.04854 16.4776 3.99681 16.7377 4.00001 17V21H60V17C59.9865 16.4738 59.7715 15.9729 59.3993 15.6007C59.0271 15.2285 58.5262 15.0135 58 15H6.00001C5.7377 14.9968 5.47763 15.0485 5.23652 15.1518C4.99541 15.2552 4.77859 15.4078 4.60001 15.6ZM59.4 48.4C59.584 48.2291 59.7319 48.023 59.8349 47.794C59.938 47.565 59.9941 47.3177 60 47.0666V29H4.00001V47C4.0059 47.251 4.06203 47.4983 4.16508 47.7273C4.26813 47.9564 4.41602 48.1624 4.60001 48.3333C4.77092 48.5173 4.97695 48.6652 5.20596 48.7682C5.43496 48.8713 5.68229 48.9274 5.93334 48.9333H57.9333C58.2017 48.9546 58.4716 48.918 58.7246 48.826C58.9777 48.734 59.208 48.5887 59.4 48.4Z" fill="#BEB400"/>
</svg>
