<svg xmlns="http://www.w3.org/2000/svg" xmlns:xlink="http://www.w3.org/1999/xlink" width="296.001" height="163.999" viewBox="0 0 296.001 163.999"><defs><style>.a{fill:#fff;}.b{filter:url(#a);}</style><filter id="a" x="0" y="0" width="296.001" height="163.999" filterUnits="userSpaceOnUse"><feOffset dy="4" input="SourceAlpha"/><feGaussianBlur stdDeviation="4" result="b"/><feFlood flood-opacity="0.251"/><feComposite operator="in" in2="b"/><feComposite in="SourceGraphic"/></filter></defs><g class="b" transform="matrix(1, 0, 0, 1, 0, 0)"><path class="a" d="M1382.117,906.7l19.3-.594V926Zm-119.649-7.923-6.444-100a12,12,0,0,1,12.329-12.767l248,7.293a12,12,0,0,1,11.64,12.44l-3.158,85.37a12,12,0,0,1-11.623,11.551L1274.813,910c-.125,0-.251.006-.375.006A12,12,0,0,1,1262.469,898.773Z" transform="translate(-1244 -778)"/></g></svg>