<svg xmlns="http://www.w3.org/2000/svg" width="32" height="32" viewBox="0 0 32 32"><defs><style>.a{fill:#5181b8;fill-rule:evenodd;}</style></defs><path class="a" d="M416,220v24a4,4,0,0,0,4,4h24a4,4,0,0,0,4-4V220a4,4,0,0,0-4-4H420A4,4,0,0,0,416,220Zm21.621,13.109c.178.189.411.443.619.621.494.423,2.516,2.316,1.375,2.73a14.036,14.036,0,0,1-2.332.1,2.044,2.044,0,0,1-1.691-.743,10.236,10.236,0,0,0-1.175-1.226c-.722-.545-1.011.453-1.053,1.094-.06.924-.168.86-1.6.848a6.036,6.036,0,0,1-4.644-2.685,27.147,27.147,0,0,1-2.707-4.612c-.111-.244-.3-.586-.374-.828-.153-.481.2-.545.6-.551a13.993,13.993,0,0,1,2.381.048c.4.173.54.851.894,1.549.248.488,1.7,3.231,2.19,2.254a5.9,5.9,0,0,0-.016-3.188.87.87,0,0,0-.309-.292,2.305,2.305,0,0,0-.359-.119c-.117-.047-.052-.013-.112-.064.2-.56,1.135-.6,1.814-.6.584-.007,1.832-.058,2.1.343.444.66-.38,4.478.673,4.079.568-.215,1.638-2.1,1.985-2.9.521-1.2.307-1.086,1.362-1.093a21.641,21.641,0,0,1,2.378,0c.771.149.173,1.079-.119,1.551-.2.329-1.04,1.527-1.267,1.775l-.765,1.076A.655.655,0,0,0,437.621,233.109Z" transform="translate(-416 -216)"/></svg>